<svg id="svg" version="1.1" xmlns="http://www.w3.org/2000/svg" xmlns:xlink="http://www.w3.org/1999/xlink" width="400" height="400" viewBox="0, 0, 400,400"><g id="svgg"><path id="path0" d="M360.600 0.524 C 359.940 0.789,357.960 1.696,356.200 2.540 C 350.419 5.313,349.014 5.962,347.900 6.374 C 347.295 6.597,346.800 6.950,346.800 7.158 C 346.800 7.366,346.253 7.656,345.585 7.803 C 344.372 8.070,338.334 11.231,337.200 12.194 C 336.870 12.474,336.001 13.007,335.269 13.378 C 334.537 13.749,333.156 14.649,332.201 15.379 C 331.245 16.108,329.909 16.950,329.232 17.250 C 328.554 17.550,328.000 17.931,328.000 18.098 C 328.000 18.264,327.805 18.400,327.567 18.400 C 327.329 18.400,326.384 19.008,325.467 19.751 C 324.550 20.494,323.383 21.230,322.874 21.386 C 322.365 21.543,321.818 22.022,321.659 22.452 C 321.373 23.225,319.349 24.959,315.315 27.887 C 314.169 28.719,313.224 29.538,313.215 29.707 C 313.197 30.080,309.563 33.600,309.196 33.600 C 309.053 33.600,308.694 34.050,308.400 34.600 C 308.085 35.189,307.513 35.600,307.008 35.600 C 306.131 35.600,304.400 36.932,304.400 37.606 C 304.400 37.812,303.781 38.543,303.025 39.231 C 298.963 42.928,294.400 47.672,294.400 48.198 C 294.400 48.529,294.117 48.800,293.771 48.800 C 293.053 48.800,292.000 49.734,292.000 50.371 C 292.000 50.607,291.730 50.800,291.400 50.800 C 290.870 50.800,290.759 50.992,290.814 51.814 C 290.837 52.158,289.692 53.200,289.291 53.200 C 288.734 53.200,287.561 54.627,287.866 54.932 C 288.013 55.080,287.923 55.200,287.667 55.200 C 287.410 55.200,287.200 55.470,287.200 55.800 C 287.200 56.349,286.712 56.584,285.870 56.437 C 285.689 56.406,285.655 56.565,285.794 56.790 C 285.933 57.016,285.859 57.200,285.629 57.200 C 285.398 57.200,284.756 57.920,284.200 58.800 C 283.566 59.805,282.890 60.400,282.382 60.400 C 281.938 60.400,281.458 60.715,281.314 61.100 C 280.828 62.409,279.403 64.086,278.476 64.443 C 277.955 64.643,277.670 64.990,277.823 65.237 C 277.975 65.483,276.761 66.974,275.047 68.644 C 273.371 70.276,272.000 71.797,272.000 72.022 C 272.000 72.521,268.817 75.600,268.302 75.600 C 268.099 75.600,268.007 75.821,268.097 76.091 C 268.311 76.733,267.217 77.872,266.200 78.066 C 265.570 78.186,265.400 78.536,265.400 79.710 C 265.400 80.863,265.242 81.200,264.700 81.200 C 264.315 81.200,264.000 81.432,264.000 81.715 C 264.000 81.998,263.620 82.258,263.155 82.293 C 262.690 82.328,262.284 82.412,262.253 82.479 C 262.223 82.545,261.793 83.178,261.299 83.884 C 260.804 84.590,260.400 85.312,260.400 85.488 C 260.400 85.665,259.860 86.255,259.200 86.800 C 258.540 87.345,258.000 88.013,258.000 88.283 C 258.000 88.554,257.739 88.675,257.420 88.552 C 257.030 88.403,256.643 88.801,256.238 89.771 C 255.907 90.563,255.369 91.314,255.043 91.439 C 254.717 91.564,254.548 91.921,254.668 92.233 C 254.800 92.577,254.633 92.800,254.243 92.800 C 253.889 92.800,253.600 93.060,253.600 93.377 C 253.600 93.695,253.277 94.190,252.883 94.477 C 252.489 94.765,251.544 95.785,250.783 96.744 C 250.022 97.702,248.368 99.556,247.106 100.863 C 244.595 103.463,242.670 106.086,242.221 107.521 C 241.975 108.308,241.840 108.366,241.291 107.921 C 240.742 107.475,240.688 107.500,240.913 108.100 C 241.057 108.485,240.994 108.800,240.774 108.800 C 240.553 108.800,240.018 109.402,239.584 110.137 C 239.150 110.872,238.386 111.660,237.886 111.888 C 237.385 112.116,236.568 113.095,236.070 114.064 C 235.571 115.033,234.767 116.000,234.282 116.213 C 233.797 116.426,233.443 116.733,233.496 116.896 C 233.549 117.058,232.772 117.947,231.769 118.871 C 230.581 119.966,230.010 120.793,230.128 121.246 C 230.246 121.696,230.127 121.870,229.790 121.741 C 229.497 121.629,229.027 122.033,228.709 122.671 C 228.400 123.292,227.934 123.755,227.673 123.700 C 227.408 123.644,227.200 124.040,227.200 124.600 C 227.200 125.306,226.983 125.600,226.461 125.600 C 225.976 125.600,225.462 126.185,224.968 127.300 C 224.134 129.181,223.482 130.000,222.819 130.000 C 222.578 130.000,222.209 130.450,222.000 131.000 C 221.767 131.612,221.306 132.000,220.810 132.000 C 220.357 132.000,220.000 132.264,220.000 132.600 C 220.000 132.930,219.809 133.200,219.576 133.200 C 219.343 133.200,219.258 133.371,219.387 133.579 C 219.516 133.787,218.806 134.773,217.811 135.768 C 216.815 136.764,216.000 137.858,216.000 138.198 C 216.000 138.539,215.543 139.025,214.985 139.280 C 214.418 139.538,214.057 139.972,214.168 140.260 C 214.277 140.545,213.974 141.053,213.494 141.389 C 213.015 141.725,212.797 142.005,213.011 142.012 C 213.225 142.019,213.063 142.220,212.652 142.459 C 212.048 142.810,212.010 142.960,212.452 143.241 C 212.851 143.494,212.864 143.589,212.500 143.594 C 212.225 143.597,211.936 143.555,211.858 143.500 C 211.634 143.342,209.600 145.872,209.600 146.309 C 209.600 146.525,209.330 146.926,209.000 147.200 C 208.670 147.474,208.400 148.036,208.400 148.449 C 208.400 148.862,208.130 149.200,207.800 149.200 C 207.470 149.200,207.245 149.414,207.300 149.676 C 207.355 149.938,207.040 150.228,206.600 150.319 C 205.273 150.596,204.720 151.222,205.244 151.853 C 205.588 152.268,205.573 152.400,205.180 152.400 C 204.541 152.400,201.200 155.835,201.200 156.492 C 201.200 156.755,200.705 157.377,200.100 157.876 C 199.171 158.640,199.093 158.844,199.600 159.184 C 200.133 159.542,200.132 159.588,199.596 159.594 C 199.264 159.597,198.763 159.967,198.483 160.416 C 198.203 160.864,197.800 161.123,197.587 160.992 C 197.374 160.860,197.200 161.230,197.200 161.814 C 197.200 162.538,196.946 162.941,196.400 163.084 C 195.960 163.199,195.600 163.548,195.600 163.859 C 195.600 164.170,195.330 164.529,195.000 164.655 C 194.670 164.782,194.400 165.161,194.400 165.497 C 194.400 165.833,193.950 166.525,193.400 167.035 C 192.850 167.545,192.400 168.330,192.400 168.781 C 192.400 169.523,191.978 169.795,191.070 169.637 C 190.889 169.606,190.871 169.792,191.031 170.051 C 191.191 170.310,191.049 170.721,190.715 170.966 C 190.381 171.210,189.614 172.353,189.012 173.505 C 188.409 174.657,187.800 175.601,187.658 175.603 C 187.134 175.608,185.927 178.176,186.378 178.326 C 186.621 178.407,186.125 179.132,185.274 179.937 C 184.423 180.742,183.801 181.619,183.892 181.886 C 183.983 182.153,183.684 182.772,183.229 183.261 C 182.301 184.257,182.142 185.198,182.900 185.204 C 183.175 185.207,182.804 185.678,182.076 186.252 C 181.333 186.837,180.842 187.534,180.959 187.836 C 181.073 188.134,180.904 188.639,180.583 188.960 C 180.262 189.281,180.000 189.783,180.000 190.076 C 180.000 190.368,179.555 191.088,179.011 191.675 C 178.410 192.323,178.203 192.801,178.483 192.894 C 178.737 192.979,178.828 193.349,178.687 193.717 C 178.534 194.116,178.182 194.291,177.815 194.150 C 177.333 193.965,177.200 194.221,177.200 195.334 C 177.200 196.114,177.020 196.864,176.800 197.000 C 176.580 197.136,176.400 197.665,176.400 198.175 C 176.400 198.685,176.132 199.325,175.804 199.596 C 175.416 199.919,175.251 200.632,175.332 201.645 C 175.399 202.500,175.304 203.200,175.120 203.200 C 174.935 203.200,174.894 203.635,175.027 204.167 C 175.209 204.889,175.061 205.246,174.445 205.576 C 173.724 205.962,173.646 206.288,173.825 208.176 C 173.938 209.363,173.860 210.439,173.652 210.568 C 173.445 210.696,173.364 211.140,173.472 211.555 C 173.581 211.970,173.474 212.431,173.235 212.578 C 172.703 212.907,172.651 216.000,173.177 216.000 C 173.567 216.000,173.444 217.281,172.983 218.028 C 172.838 218.262,173.053 218.725,173.460 219.056 C 173.867 219.388,173.956 219.533,173.657 219.380 C 173.231 219.160,173.174 219.369,173.389 220.350 C 173.578 221.209,173.513 221.600,173.183 221.600 C 172.810 221.600,172.810 221.730,173.185 222.182 C 173.451 222.503,173.562 222.938,173.431 223.150 C 173.300 223.362,173.456 223.799,173.777 224.120 C 174.099 224.442,174.252 224.815,174.117 224.949 C 173.639 225.428,173.804 229.004,174.331 229.560 C 174.643 229.888,174.752 230.467,174.597 230.960 C 174.213 232.174,174.299 233.366,174.782 233.527 C 175.012 233.604,175.200 234.001,175.200 234.410 C 175.200 234.818,175.385 235.267,175.611 235.407 C 175.836 235.546,175.988 235.872,175.946 236.130 C 175.905 236.389,176.094 237.140,176.365 237.800 C 176.637 238.460,177.005 239.781,177.184 240.735 C 177.363 241.689,177.710 242.670,177.955 242.915 C 178.200 243.160,178.400 243.842,178.400 244.431 C 178.400 245.020,178.672 245.727,179.004 246.003 C 179.336 246.278,179.719 247.201,179.855 248.052 C 179.991 248.903,180.313 249.600,180.571 249.600 C 180.843 249.600,181.040 250.207,181.040 251.047 C 181.040 252.000,181.296 252.681,181.791 253.043 C 182.204 253.345,182.433 253.700,182.301 253.833 C 182.168 253.965,182.411 254.892,182.840 255.893 C 183.269 256.894,183.540 257.793,183.443 257.891 C 183.215 258.118,184.035 260.535,184.429 260.801 C 184.594 260.912,184.963 262.172,185.251 263.601 C 185.538 265.031,185.888 266.290,186.027 266.400 C 186.270 266.591,186.430 267.132,187.033 269.800 C 187.182 270.460,187.534 271.270,187.815 271.600 C 188.096 271.930,188.387 272.650,188.463 273.200 C 188.538 273.750,188.916 274.550,189.302 274.978 C 189.725 275.446,189.907 276.063,189.760 276.526 C 189.626 276.949,189.691 277.679,189.904 278.148 C 190.118 278.616,190.461 279.540,190.666 280.200 C 190.926 281.039,191.255 281.362,191.758 281.273 C 192.154 281.204,192.819 281.455,193.236 281.832 C 193.652 282.209,194.493 282.557,195.104 282.605 C 195.714 282.653,197.175 283.179,198.349 283.774 C 201.096 285.166,202.368 284.980,208.200 282.332 C 225.577 274.445,250.794 259.329,269.400 245.646 C 278.190 239.182,279.573 238.240,279.855 238.522 C 280.379 239.046,257.817 260.781,252.800 264.584 C 251.370 265.668,249.120 267.585,247.800 268.844 C 245.353 271.177,244.703 271.705,237.000 277.610 C 230.925 282.267,226.191 286.923,224.912 289.500 C 224.339 290.655,223.719 291.600,223.535 291.600 C 223.351 291.600,223.200 291.767,223.200 291.971 C 223.200 292.174,222.336 293.659,221.280 295.271 C 218.092 300.137,216.671 303.594,216.212 307.600 C 215.637 312.620,214.168 318.700,211.815 325.800 C 211.524 326.680,210.979 328.390,210.605 329.600 C 209.615 332.803,206.821 338.239,204.746 341.000 C 203.754 342.320,202.146 344.818,201.171 346.551 C 199.242 349.984,196.619 353.200,195.749 353.200 C 195.294 353.200,195.199 350.814,195.197 339.300 C 195.193 320.515,194.758 293.863,194.450 293.528 C 194.240 293.299,190.697 294.652,185.400 296.983 C 181.948 298.502,187.660 303.655,139.087 255.212 C 97.791 214.026,101.061 217.718,102.823 214.288 C 103.818 212.351,103.809 212.026,102.796 213.314 C 102.355 213.875,101.883 214.887,101.748 215.561 C 101.608 216.261,101.325 216.677,101.089 216.531 C 100.521 216.180,100.982 220.470,101.618 221.451 C 101.885 221.863,102.895 222.830,103.862 223.600 C 104.829 224.370,106.225 225.495,106.963 226.100 C 107.702 226.705,108.385 227.200,108.481 227.200 C 108.991 227.200,112.587 231.072,113.769 232.895 C 115.766 235.971,179.578 299.600,180.667 299.600 C 181.133 299.600,181.618 299.870,181.745 300.200 C 182.053 301.004,184.933 301.004,185.600 300.200 C 185.874 299.870,186.408 299.600,186.788 299.600 C 187.167 299.600,187.893 299.240,188.400 298.800 C 188.907 298.360,189.661 298.000,190.074 298.000 C 190.487 298.000,190.928 297.731,191.054 297.402 C 191.181 297.074,191.445 296.904,191.642 297.026 C 191.839 297.148,192.006 297.012,192.013 296.724 C 192.021 296.401,192.251 296.498,192.613 296.976 C 193.098 297.618,193.205 299.906,193.230 310.176 C 193.247 317.009,193.424 326.560,193.624 331.400 C 194.071 342.226,194.146 346.698,193.903 348.000 C 193.196 351.791,193.191 353.840,193.885 355.200 C 194.573 356.546,196.400 357.421,196.400 356.404 C 196.400 356.156,196.588 356.069,196.818 356.211 C 197.351 356.541,198.756 355.618,200.683 353.671 C 201.519 352.827,202.738 352.002,203.393 351.837 C 204.048 351.673,205.155 350.896,205.853 350.112 C 206.659 349.206,207.347 348.771,207.736 348.920 C 208.116 349.066,208.968 348.572,209.979 347.620 C 210.876 346.775,212.058 345.972,212.605 345.834 C 213.153 345.697,214.247 344.958,215.035 344.192 C 215.824 343.426,216.726 342.800,217.041 342.800 C 217.356 342.800,218.196 342.205,218.907 341.477 C 219.618 340.749,220.526 340.030,220.925 339.880 C 221.324 339.729,221.553 339.447,221.433 339.253 C 221.313 339.059,221.931 338.785,222.807 338.645 C 223.868 338.476,224.400 338.184,224.400 337.772 C 224.400 337.431,224.554 337.248,224.742 337.364 C 224.929 337.480,225.287 337.126,225.537 336.578 C 225.820 335.957,226.442 335.492,227.190 335.342 C 227.849 335.210,228.850 334.674,229.415 334.151 C 229.979 333.628,230.600 333.200,230.794 333.200 C 230.987 333.200,231.255 332.857,231.388 332.437 C 231.521 332.018,232.321 331.398,233.165 331.061 C 234.009 330.723,235.302 329.896,236.039 329.223 C 236.776 328.551,237.529 328.000,237.713 328.000 C 237.897 328.000,237.975 327.865,237.887 327.700 C 237.677 327.307,239.063 325.996,239.367 326.300 C 239.495 326.428,239.600 326.323,239.600 326.067 C 239.600 325.810,239.934 325.600,240.342 325.600 C 241.020 325.600,246.159 321.301,246.925 320.093 C 247.104 319.811,248.033 319.212,248.990 318.763 C 249.946 318.313,252.050 316.632,253.664 315.027 C 255.279 313.422,257.320 311.742,258.200 311.295 C 259.080 310.847,260.314 309.834,260.942 309.043 C 261.571 308.252,262.246 307.705,262.442 307.826 C 262.639 307.948,262.800 307.785,262.800 307.466 C 262.800 306.804,264.541 305.000,265.179 305.000 C 265.410 305.000,265.615 304.820,265.634 304.600 C 265.690 303.942,266.465 303.193,266.845 303.428 C 267.040 303.549,267.200 303.350,267.200 302.986 C 267.200 302.623,267.558 302.231,267.996 302.117 C 268.433 302.003,268.705 301.770,268.600 301.600 C 268.387 301.256,269.179 300.487,269.800 300.434 C 270.020 300.415,270.216 300.265,270.235 300.100 C 270.354 299.063,270.930 298.363,271.250 298.866 C 271.507 299.273,271.589 299.230,271.594 298.687 C 271.597 298.296,271.915 297.861,272.300 297.721 C 274.391 296.963,280.800 290.848,280.800 289.612 C 280.800 289.166,281.017 288.845,281.282 288.900 C 281.547 288.955,281.772 288.781,281.782 288.513 C 281.802 287.961,282.671 286.976,284.171 285.800 C 284.732 285.360,285.194 284.775,285.196 284.500 C 285.198 284.225,285.395 284.000,285.633 284.000 C 285.872 284.000,285.988 283.775,285.892 283.500 C 285.796 283.225,286.231 282.409,286.859 281.686 C 287.486 280.963,288.000 280.054,288.000 279.666 C 288.000 279.278,288.189 278.771,288.419 278.541 C 288.650 278.310,288.900 277.059,288.974 275.761 C 289.049 274.462,289.240 273.085,289.398 272.699 C 289.557 272.314,289.590 268.534,289.472 264.299 C 289.078 250.176,288.983 233.934,289.293 233.742 C 289.462 233.638,289.600 233.223,289.600 232.820 C 289.600 231.932,295.488 226.001,296.373 225.997 C 297.123 225.994,305.400 218.192,305.400 217.489 C 305.400 217.220,305.613 217.000,305.874 217.000 C 306.486 217.000,318.635 204.766,318.490 204.296 C 318.430 204.100,318.541 204.040,318.737 204.161 C 319.209 204.453,320.488 203.021,320.101 202.634 C 319.935 202.469,319.991 202.393,320.225 202.467 C 320.815 202.652,323.207 200.335,322.915 199.862 C 322.784 199.650,322.839 199.575,323.038 199.696 C 323.237 199.817,323.632 199.665,323.916 199.358 C 324.199 199.051,324.289 198.787,324.116 198.772 C 323.942 198.756,324.076 198.621,324.414 198.472 C 325.369 198.049,328.400 194.581,328.400 193.911 C 328.400 193.581,330.738 190.993,333.595 188.159 C 336.852 184.929,339.015 182.446,339.391 181.507 C 339.721 180.682,341.173 178.819,342.618 177.367 C 344.169 175.808,345.192 174.456,345.116 174.064 C 345.039 173.666,346.230 172.143,348.094 170.258 C 349.802 168.530,351.200 166.775,351.200 166.358 C 351.200 165.941,351.380 165.600,351.600 165.600 C 351.820 165.600,351.955 165.452,351.900 165.270 C 351.845 165.089,352.578 164.190,353.530 163.273 C 354.593 162.248,355.202 161.335,355.110 160.903 C 354.955 160.176,356.500 158.400,357.287 158.400 C 357.533 158.400,357.614 158.281,357.469 158.136 C 357.324 157.991,357.564 157.620,358.003 157.313 C 358.441 157.006,358.800 156.376,358.800 155.913 C 358.800 155.444,359.465 154.479,360.300 153.736 C 361.125 153.001,361.652 152.400,361.471 152.400 C 361.291 152.400,361.434 152.109,361.789 151.754 C 362.145 151.398,362.372 150.916,362.294 150.682 C 362.216 150.449,362.703 149.665,363.376 148.940 C 365.382 146.782,365.600 146.467,365.607 145.717 C 365.610 145.323,366.330 144.293,367.207 143.430 C 368.794 141.866,369.241 140.800,368.311 140.800 C 368.042 140.800,368.267 140.493,368.811 140.118 C 370.241 139.133,370.773 138.339,370.787 137.168 C 370.796 136.486,371.137 135.955,371.793 135.604 C 372.861 135.032,373.286 134.179,373.539 132.100 C 373.573 131.825,373.864 131.600,374.186 131.600 C 374.853 131.600,375.730 130.190,375.497 129.492 C 375.412 129.237,375.851 128.601,376.471 128.079 C 377.137 127.518,377.600 126.732,377.600 126.161 C 377.600 125.628,377.960 124.884,378.400 124.507 C 378.840 124.130,379.200 123.420,379.200 122.929 C 379.200 122.438,379.666 121.570,380.236 121.000 C 380.873 120.363,381.178 119.719,381.027 119.326 C 380.877 118.935,381.095 118.469,381.591 118.121 C 382.047 117.802,382.400 117.105,382.400 116.523 C 382.400 115.937,382.831 115.092,383.400 114.565 C 383.950 114.055,384.400 113.370,384.400 113.043 C 384.400 112.715,384.583 112.334,384.807 112.196 C 385.030 112.058,385.121 111.796,385.009 111.614 C 384.896 111.433,385.074 111.181,385.402 111.054 C 385.731 110.928,386.000 110.484,386.000 110.066 C 386.000 109.649,386.360 108.850,386.800 108.291 C 387.240 107.731,387.600 106.908,387.600 106.461 C 387.600 106.013,387.796 105.526,388.035 105.378 C 388.274 105.231,388.384 104.780,388.278 104.378 C 388.171 103.966,388.418 103.345,388.843 102.961 C 389.260 102.584,389.600 101.876,389.600 101.387 C 389.600 100.898,389.878 100.267,390.218 99.985 C 390.558 99.703,390.739 99.217,390.619 98.906 C 390.500 98.595,390.672 98.071,391.001 97.742 C 391.331 97.412,391.600 96.728,391.600 96.220 C 391.600 95.713,391.883 95.063,392.228 94.777 C 392.573 94.490,392.773 93.940,392.672 93.554 C 392.571 93.168,392.739 92.756,393.044 92.638 C 393.350 92.521,393.600 91.982,393.600 91.441 C 393.600 90.900,393.870 90.187,394.200 89.857 C 394.930 89.127,394.979 88.404,394.300 88.388 C 394.023 88.381,394.112 88.194,394.500 87.968 C 394.916 87.725,395.200 87.082,395.200 86.380 C 395.200 85.731,395.380 85.200,395.600 85.200 C 395.820 85.200,396.000 84.848,396.000 84.419 C 396.000 83.711,396.160 83.213,397.226 80.600 C 397.742 79.335,398.426 75.566,398.205 75.208 C 398.095 75.030,398.252 74.789,398.555 74.673 C 399.990 74.122,400.715 15.713,399.312 13.648 C 398.921 13.072,398.397 12.060,398.148 11.400 C 397.899 10.740,397.494 10.245,397.248 10.300 C 397.002 10.355,396.800 10.196,396.800 9.947 C 396.800 9.456,394.805 7.601,394.276 7.600 C 394.098 7.600,394.064 7.420,394.200 7.200 C 394.336 6.980,394.297 6.800,394.113 6.800 C 393.929 6.800,393.187 6.260,392.464 5.600 C 391.742 4.940,391.280 4.400,391.438 4.400 C 391.595 4.400,391.201 3.950,390.562 3.400 C 389.376 2.381,388.400 2.099,388.400 2.777 C 388.400 2.985,387.816 2.622,387.103 1.970 C 386.389 1.318,385.741 0.978,385.662 1.214 C 385.583 1.451,385.284 1.320,384.992 0.921 C 384.326 0.010,362.758 -0.341,360.600 0.524 M213.039 67.649 C 212.008 68.556,211.240 69.374,211.332 69.465 C 211.424 69.557,212.376 68.815,213.448 67.816 C 215.884 65.548,215.571 65.420,213.039 67.649 M195.579 83.822 C 195.051 84.384,194.888 84.741,195.218 84.614 C 195.739 84.415,197.034 82.800,196.673 82.800 C 196.600 82.800,196.107 83.260,195.579 83.822 M192.449 86.800 C 191.505 87.680,190.883 88.394,191.066 88.387 C 191.465 88.371,192.707 87.310,193.762 86.085 C 194.949 84.707,194.336 85.041,192.449 86.800 M189.019 90.227 L 188.347 91.253 189.373 90.581 C 190.386 89.917,190.736 89.200,190.046 89.200 C 189.851 89.200,189.389 89.662,189.019 90.227 M138.600 112.199 C 139.610 112.541,144.400 112.669,144.400 112.354 C 144.400 112.159,143.005 112.014,141.300 112.032 C 139.595 112.049,138.380 112.124,138.600 112.199 M168.000 112.600 C 167.052 113.142,167.045 113.172,167.857 113.186 C 168.329 113.194,168.818 112.930,168.945 112.600 C 169.220 111.884,169.253 111.884,168.000 112.600 M135.400 117.168 C 132.027 117.598,130.700 118.733,125.549 125.595 C 121.209 131.378,121.233 131.344,118.600 135.381 C 116.056 139.282,111.798 145.605,108.163 150.882 C 106.603 153.147,104.728 156.080,103.996 157.400 C 103.265 158.720,101.565 161.420,100.220 163.400 C 89.083 179.789,87.375 192.297,95.680 196.636 C 99.967 198.876,107.493 193.839,112.468 185.400 C 113.376 183.860,115.236 180.980,116.601 179.000 C 117.967 177.020,120.162 173.510,121.478 171.200 C 125.856 163.521,127.766 160.448,131.733 154.699 C 133.896 151.565,136.037 148.280,136.490 147.400 C 137.496 145.448,142.108 138.333,143.634 136.377 C 144.620 135.114,148.477 128.305,150.451 124.344 C 152.357 120.518,151.587 118.577,147.640 117.255 C 146.221 116.780,138.852 116.727,135.400 117.168 M95.192 137.010 C 94.419 137.941,94.971 138.117,95.798 137.202 C 96.197 136.761,96.338 136.400,96.111 136.400 C 95.884 136.400,95.470 136.674,95.192 137.010 M85.755 148.212 C 85.390 148.769,85.170 149.304,85.267 149.400 C 85.363 149.497,85.758 149.041,86.144 148.388 C 86.998 146.942,86.681 146.799,85.755 148.212 M73.960 162.919 C 73.405 163.623,72.792 164.470,72.598 164.800 C 72.000 165.820,73.504 164.459,74.462 163.112 C 75.606 161.507,75.198 161.349,73.960 162.919 M68.782 169.634 C 68.128 170.856,68.579 170.996,69.355 169.812 C 69.720 169.256,69.841 168.800,69.623 168.800 C 69.406 168.800,69.027 169.175,68.782 169.634 M64.096 176.185 C 63.409 177.159,63.098 177.861,63.405 177.743 C 63.977 177.523,65.748 174.815,65.489 174.556 C 65.410 174.477,64.783 175.210,64.096 176.185 M61.045 180.588 C 60.680 181.144,60.522 181.600,60.695 181.600 C 61.084 181.600,62.119 179.986,61.882 179.749 C 61.786 179.653,61.410 180.031,61.045 180.588 M57.923 185.100 C 57.171 185.975,56.658 187.335,57.207 186.995 C 57.616 186.743,58.939 184.400,58.672 184.400 C 58.591 184.400,58.253 184.715,57.923 185.100 M55.200 189.600 C 54.730 190.260,54.436 190.800,54.546 190.800 C 54.656 190.800,55.130 190.260,55.600 189.600 C 56.070 188.940,56.364 188.400,56.254 188.400 C 56.144 188.400,55.670 188.940,55.200 189.600 M51.923 194.300 C 51.592 194.685,51.198 195.360,51.048 195.800 C 50.857 196.356,51.078 196.235,51.773 195.400 C 52.677 194.314,53.029 193.600,52.662 193.600 C 52.586 193.600,52.253 193.915,51.923 194.300 M48.040 200.223 C 47.084 201.842,47.045 202.000,47.600 202.000 C 47.820 202.000,48.000 201.803,48.000 201.562 C 48.000 201.321,48.372 200.601,48.827 199.962 C 49.282 199.323,49.480 198.800,49.267 198.800 C 49.053 198.800,48.501 199.440,48.040 200.223 M46.018 203.557 C 45.433 204.969,45.608 207.038,46.300 206.900 C 46.575 206.845,46.755 207.025,46.700 207.300 C 46.621 207.695,51.447 207.817,69.600 207.880 C 82.250 207.924,95.165 208.005,98.300 208.060 L 104.000 208.161 104.010 209.581 L 104.020 211.000 105.410 208.819 C 108.067 204.648,109.386 204.804,71.500 204.802 C 57.695 204.801,46.400 204.722,46.400 204.626 C 46.400 204.530,46.576 203.990,46.790 203.426 C 47.330 202.006,46.610 202.128,46.018 203.557 M62.735 239.617 C 61.837 240.507,61.182 241.315,61.280 241.413 C 61.531 241.665,63.200 240.055,63.200 239.561 C 63.200 239.336,63.371 239.258,63.580 239.388 C 63.789 239.517,64.155 239.257,64.394 238.811 C 65.052 237.581,64.541 237.830,62.735 239.617 M59.803 242.648 C 59.390 243.198,58.643 244.124,58.142 244.707 C 57.642 245.289,57.325 245.858,57.437 245.971 C 57.550 246.083,58.128 245.553,58.721 244.792 C 59.315 244.031,60.108 243.098,60.485 242.719 C 60.862 242.339,61.032 241.943,60.862 241.839 C 60.693 241.734,60.216 242.098,59.803 242.648 M53.700 251.423 C 53.111 252.063,53.062 252.400,53.557 252.400 C 53.898 252.400,54.537 251.196,54.309 250.983 C 54.249 250.927,53.975 251.125,53.700 251.423 M51.841 254.863 C 51.101 255.920,51.029 256.400,51.610 256.400 C 52.040 256.400,52.947 254.414,52.652 254.119 C 52.558 254.025,52.193 254.360,51.841 254.863 M50.428 258.166 C 50.130 258.525,50.005 258.938,50.150 259.083 C 50.523 259.457,51.322 258.567,51.130 257.991 C 51.020 257.660,50.803 257.714,50.428 258.166 M130.800 258.795 C 130.800 259.089,134.930 263.485,139.977 268.565 C 145.025 273.644,151.910 280.637,155.277 284.105 C 161.490 290.502,162.085 291.011,161.721 289.620 C 161.406 288.416,158.097 285.093,157.549 285.431 C 157.258 285.611,157.182 285.552,157.353 285.277 C 157.704 284.707,138.056 264.718,137.489 265.068 C 137.262 265.209,137.189 265.142,137.326 264.920 C 137.647 264.401,135.850 262.694,135.406 263.096 C 135.222 263.263,135.186 263.200,135.326 262.955 C 135.465 262.710,134.909 261.917,134.090 261.192 C 133.270 260.467,132.195 259.511,131.700 259.067 C 131.085 258.516,130.800 258.430,130.800 258.795 M49.773 260.243 C 49.638 260.659,49.353 261.368,49.141 261.817 C 48.928 262.267,48.709 262.936,48.655 263.306 C 48.601 263.675,48.431 264.102,48.278 264.255 C 48.125 264.408,48.000 265.043,48.000 265.667 C 48.000 266.290,47.836 266.800,47.635 266.800 C 47.435 266.800,47.318 267.115,47.376 267.500 C 47.434 267.885,47.310 268.740,47.100 269.400 C 46.890 270.060,46.726 270.919,46.735 271.309 C 46.745 271.728,46.571 271.905,46.308 271.743 C 46.021 271.566,45.954 271.704,46.119 272.134 C 46.260 272.500,46.219 272.800,46.029 272.800 C 45.839 272.800,45.593 273.475,45.482 274.300 C 45.230 276.165,45.053 276.879,44.706 277.434 C 44.557 277.672,44.329 278.482,44.200 279.234 C 44.071 279.985,43.757 281.185,43.503 281.900 C 43.182 282.801,43.167 283.327,43.456 283.616 C 43.745 283.905,44.087 283.199,44.573 281.316 C 44.958 279.822,45.597 277.520,45.993 276.200 C 47.249 272.010,47.965 269.436,48.217 268.200 C 48.352 267.540,48.611 266.640,48.792 266.200 C 49.327 264.905,50.418 259.885,50.210 259.677 C 50.105 259.571,49.908 259.826,49.773 260.243 M42.598 285.042 C 42.463 285.679,42.183 286.513,41.976 286.895 C 41.769 287.277,41.600 288.031,41.600 288.571 C 41.600 289.111,41.420 289.664,41.200 289.800 C 40.980 289.936,40.800 290.442,40.800 290.924 C 40.800 291.406,40.436 292.756,39.992 293.925 C 39.548 295.094,39.305 296.247,39.454 296.487 C 39.611 296.741,39.539 296.810,39.283 296.652 C 38.822 296.366,38.006 298.674,38.002 300.276 C 38.001 300.758,37.844 301.249,37.653 301.367 C 37.257 301.612,35.367 307.233,35.516 307.721 C 35.570 307.898,35.339 308.318,35.003 308.654 C 34.668 308.990,34.500 309.438,34.631 309.650 C 34.762 309.862,34.697 310.252,34.487 310.518 C 34.276 310.783,33.983 311.675,33.834 312.500 C 33.685 313.325,33.392 314.000,33.182 314.000 C 32.972 314.000,32.829 314.135,32.864 314.300 C 32.898 314.465,32.822 314.870,32.694 315.200 C 31.524 318.221,30.800 320.595,30.800 321.415 C 30.800 321.957,30.605 322.400,30.367 322.400 C 30.128 322.400,30.008 322.623,30.099 322.896 C 30.190 323.169,30.025 323.632,29.732 323.925 C 29.439 324.218,29.200 324.894,29.200 325.429 C 29.200 325.963,29.020 326.400,28.800 326.400 C 28.580 326.400,28.400 326.810,28.400 327.311 C 28.400 327.812,28.156 328.577,27.857 329.011 C 27.558 329.445,27.096 330.520,26.829 331.400 C 26.562 332.280,26.196 333.360,26.014 333.800 C 25.540 334.950,24.231 338.564,24.203 338.800 C 24.190 338.910,23.845 339.501,23.435 340.112 C 23.026 340.724,22.800 341.333,22.932 341.465 C 23.064 341.597,22.922 342.062,22.616 342.498 C 22.310 342.935,22.145 343.512,22.248 343.782 C 22.352 344.051,22.158 344.503,21.818 344.785 C 21.478 345.067,21.200 345.598,21.200 345.964 C 21.200 346.331,20.836 347.344,20.390 348.215 C 19.945 349.087,19.483 350.520,19.363 351.400 L 19.145 353.000 19.806 351.600 C 21.282 348.476,22.000 346.756,22.000 346.350 C 22.000 346.114,22.259 345.354,22.575 344.660 C 23.775 342.031,25.200 338.407,25.200 337.986 C 25.200 337.746,25.671 336.525,26.246 335.274 C 27.353 332.868,28.594 329.204,28.472 328.700 C 28.433 328.535,28.566 328.400,28.768 328.400 C 28.971 328.400,29.258 327.848,29.406 327.173 C 29.554 326.498,29.927 325.463,30.235 324.873 C 30.543 324.283,30.796 323.557,30.798 323.260 C 30.799 322.964,31.051 322.154,31.357 321.460 C 32.672 318.483,34.000 314.732,34.000 313.996 C 34.000 313.558,34.150 313.200,34.333 313.200 C 34.516 313.200,34.861 312.435,35.101 311.500 C 35.341 310.565,36.633 306.650,37.972 302.800 C 39.311 298.950,40.666 294.900,40.983 293.800 C 41.301 292.700,41.918 290.540,42.356 289.000 C 42.794 287.460,43.186 286.110,43.227 286.000 C 43.268 285.890,43.393 285.563,43.504 285.273 C 43.615 284.983,43.512 284.552,43.275 284.315 C 42.967 284.007,42.774 284.215,42.598 285.042 M129.067 284.667 C 128.064 285.669,129.585 287.932,132.106 289.190 C 134.642 290.455,139.558 289.770,138.954 288.236 C 138.242 286.427,130.207 283.526,129.067 284.667 M158.000 288.945 C 158.990 289.999,160.160 291.050,160.600 291.280 C 161.511 291.756,161.413 291.653,158.400 288.981 L 156.200 287.029 158.000 288.945 M165.234 294.800 C 176.984 313.339,168.565 336.043,145.800 347.209 C 141.867 349.137,139.137 349.999,123.000 354.403 C 111.749 357.474,98.828 361.584,84.000 366.806 C 72.602 370.821,70.851 371.462,65.400 373.609 C 62.540 374.736,58.220 376.429,55.800 377.372 C 50.928 379.270,42.644 382.619,41.400 383.194 C 40.960 383.398,38.350 384.453,35.600 385.540 C 28.390 388.390,20.444 391.644,15.525 393.760 C 9.765 396.239,8.745 396.046,5.778 391.916 L 4.305 389.865 4.816 387.733 C 5.098 386.560,5.479 385.600,5.664 385.600 C 5.849 385.600,6.000 385.409,6.000 385.176 C 6.000 384.140,4.833 385.712,4.200 387.600 C 4.163 387.710,3.945 388.250,3.716 388.800 C 2.135 392.586,6.801 398.916,10.536 398.054 C 10.721 398.011,11.422 397.912,12.095 397.834 C 12.767 397.755,13.482 397.397,13.683 397.037 C 13.884 396.678,14.205 396.479,14.395 396.597 C 14.825 396.863,16.800 395.992,16.800 395.536 C 16.800 395.351,17.237 395.200,17.771 395.200 C 18.306 395.200,19.013 394.930,19.343 394.600 C 19.673 394.270,20.316 394.000,20.771 394.000 C 21.227 394.000,21.600 393.809,21.600 393.576 C 21.600 393.343,21.780 393.264,22.000 393.400 C 22.220 393.536,22.414 393.322,22.432 392.924 C 22.450 392.504,22.548 392.410,22.665 392.700 C 22.927 393.350,23.859 393.344,24.110 392.691 C 24.217 392.411,24.815 392.140,25.438 392.089 C 26.061 392.037,26.717 391.733,26.896 391.414 C 27.075 391.095,27.461 390.925,27.753 391.037 C 28.046 391.150,29.290 390.782,30.517 390.221 C 31.744 389.659,33.098 389.200,33.525 389.200 C 33.953 389.200,34.526 388.930,34.800 388.600 C 35.074 388.270,35.705 388.000,36.202 388.000 C 36.776 388.000,37.185 387.702,37.320 387.184 C 37.488 386.544,37.747 386.422,38.523 386.616 C 39.073 386.755,39.631 386.673,39.780 386.432 C 39.927 386.195,40.409 386.000,40.852 386.000 C 41.295 386.000,41.927 385.730,42.257 385.400 C 42.587 385.070,43.296 384.800,43.832 384.800 C 44.369 384.800,45.097 384.462,45.450 384.050 C 45.804 383.637,46.405 383.381,46.787 383.481 C 47.168 383.580,47.771 383.372,48.126 383.017 C 48.481 382.662,48.873 382.398,48.997 382.429 C 49.121 382.461,49.623 382.361,50.111 382.207 C 50.600 382.053,51.351 381.881,51.780 381.824 C 52.208 381.768,52.628 381.515,52.713 381.261 C 52.798 381.007,53.347 380.797,53.933 380.794 C 55.027 380.788,56.095 380.310,56.034 379.855 C 55.945 379.190,56.040 379.135,56.547 379.556 C 56.964 379.902,57.219 379.860,57.619 379.377 C 57.908 379.029,58.485 378.834,58.901 378.942 C 59.338 379.057,59.920 378.835,60.276 378.420 C 60.615 378.023,61.215 377.784,61.609 377.887 C 62.013 377.992,62.705 377.695,63.194 377.206 C 63.671 376.729,64.320 376.437,64.635 376.558 C 64.950 376.679,65.423 376.432,65.687 376.009 C 66.062 375.409,66.289 375.342,66.722 375.701 C 67.153 376.059,67.363 376.010,67.659 375.481 C 67.868 375.106,68.466 374.800,68.987 374.800 C 70.324 374.800,71.239 374.387,70.948 373.915 C 70.798 373.673,71.005 373.611,71.471 373.759 C 71.895 373.894,72.593 373.739,73.021 373.415 C 73.449 373.091,74.169 372.820,74.620 372.813 C 75.071 372.806,75.649 372.591,75.904 372.336 C 76.160 372.080,76.855 371.819,77.448 371.756 C 78.042 371.693,78.639 371.460,78.776 371.239 C 78.912 371.018,79.796 370.714,80.739 370.563 C 81.682 370.413,82.710 370.033,83.024 369.719 C 83.337 369.406,83.738 369.238,83.913 369.346 C 84.089 369.455,84.855 369.267,85.616 368.928 C 87.761 367.975,88.353 367.762,92.095 366.597 C 94.018 365.998,95.516 365.387,95.424 365.239 C 95.333 365.091,95.740 364.931,96.329 364.884 C 96.918 364.837,97.632 364.484,97.916 364.101 C 98.363 363.496,98.480 363.483,98.800 364.000 C 99.118 364.514,99.242 364.495,99.705 363.862 C 100.000 363.459,100.502 363.174,100.821 363.229 C 101.511 363.350,103.542 362.890,104.441 362.409 C 104.794 362.221,105.933 361.939,106.973 361.783 C 108.013 361.627,108.954 361.264,109.065 360.975 C 109.176 360.687,109.524 360.549,109.838 360.670 C 110.153 360.791,110.655 360.686,110.954 360.438 C 111.254 360.189,111.777 360.093,112.118 360.224 C 112.459 360.355,113.073 360.133,113.483 359.731 C 113.892 359.329,114.581 358.979,115.013 358.953 C 116.478 358.865,118.134 358.430,118.368 358.072 C 118.495 357.877,119.140 357.702,119.800 357.685 C 121.981 357.629,128.431 355.792,128.868 355.103 C 129.122 354.703,129.189 354.703,129.194 355.100 C 129.197 355.375,129.470 355.600,129.800 355.600 C 130.130 355.600,130.400 355.420,130.400 355.200 C 130.400 354.980,130.852 354.800,131.405 354.800 C 131.958 354.800,132.723 354.624,133.105 354.409 C 133.962 353.927,137.076 353.102,138.323 353.027 C 138.831 352.997,139.371 352.771,139.523 352.525 C 139.676 352.279,140.650 351.951,141.689 351.795 C 142.728 351.640,143.971 351.172,144.451 350.756 C 144.930 350.340,145.733 350.000,146.234 350.000 C 146.758 350.000,147.242 349.696,147.372 349.287 C 147.504 348.873,148.048 348.537,148.671 348.486 C 149.261 348.437,150.078 348.038,150.487 347.599 C 150.896 347.159,151.415 346.800,151.639 346.800 C 151.864 346.800,151.935 346.618,151.798 346.397 C 151.548 345.992,153.173 345.161,153.659 345.445 C 153.802 345.529,154.522 345.020,155.259 344.316 C 155.997 343.611,156.735 343.072,156.900 343.117 C 157.065 343.163,157.200 343.022,157.200 342.805 C 157.200 342.588,158.893 340.717,160.962 338.648 C 163.367 336.243,165.024 334.210,165.553 333.013 C 166.011 331.978,166.564 331.254,166.791 331.394 C 167.016 331.533,167.200 331.367,167.200 331.024 C 167.200 330.681,167.400 330.400,167.643 330.400 C 167.920 330.400,167.989 330.012,167.827 329.366 C 167.667 328.726,167.719 328.426,167.964 328.578 C 168.439 328.871,169.200 327.568,169.200 326.460 C 169.200 326.024,169.390 325.603,169.621 325.526 C 170.163 325.346,170.778 322.689,170.790 320.476 C 170.796 319.528,170.961 318.852,171.158 318.974 C 172.111 319.563,172.270 308.727,171.322 307.779 C 171.007 307.464,170.832 307.070,170.933 306.903 C 171.509 305.955,169.371 298.800,168.512 298.800 C 168.231 298.800,168.000 298.609,168.000 298.376 C 168.000 298.143,168.178 298.063,168.395 298.197 C 168.636 298.346,168.675 298.155,168.495 297.707 C 167.997 296.468,167.055 295.371,165.800 294.568 L 164.600 293.800 165.234 294.800 M17.600 355.800 C 17.600 356.130,17.442 356.400,17.249 356.400 C 16.744 356.400,15.873 358.672,16.185 359.176 C 16.329 359.409,16.277 359.600,16.068 359.600 C 15.860 359.600,15.574 360.212,15.434 360.960 C 15.294 361.708,14.916 362.538,14.594 362.805 C 14.272 363.072,14.100 363.438,14.211 363.618 C 14.322 363.798,14.230 364.058,14.007 364.196 C 13.783 364.334,13.600 364.695,13.600 364.998 C 13.600 365.300,13.391 366.055,13.135 366.674 C 12.880 367.293,12.700 367.935,12.735 368.100 C 12.771 368.265,12.620 368.400,12.400 368.400 C 12.180 368.400,12.000 368.760,12.000 369.200 C 12.000 369.640,11.790 370.000,11.533 370.000 C 11.277 370.000,11.185 370.118,11.330 370.263 C 11.475 370.408,11.393 370.768,11.148 371.063 C 10.903 371.358,10.859 371.603,11.051 371.606 C 11.243 371.609,11.130 371.787,10.800 372.000 C 10.282 372.335,10.292 372.389,10.873 372.394 C 11.243 372.397,11.668 371.995,11.818 371.500 C 11.967 371.005,12.328 370.060,12.620 369.400 C 12.911 368.740,13.619 367.030,14.193 365.600 C 14.767 364.170,15.398 362.640,15.596 362.200 C 15.795 361.760,16.344 360.410,16.816 359.200 C 17.288 357.990,17.834 356.595,18.029 356.100 C 18.250 355.539,18.236 355.200,17.991 355.200 C 17.776 355.200,17.600 355.470,17.600 355.800 M10.140 373.256 C 9.613 373.921,9.593 375.200,10.109 375.200 C 10.316 375.200,10.386 374.942,10.265 374.626 C 10.144 374.310,10.242 373.986,10.482 373.906 C 10.723 373.826,10.841 373.524,10.745 373.236 C 10.603 372.810,10.490 372.814,10.140 373.256 M8.182 378.582 C 7.804 379.378,7.609 380.142,7.748 380.281 C 7.886 380.420,8.000 380.233,8.000 379.867 C 8.000 379.500,8.159 379.200,8.353 379.200 C 8.716 379.200,9.288 377.554,9.018 377.285 C 8.936 377.203,8.559 377.786,8.182 378.582 " stroke="none" fill="#8cbd64" fill-rule="evenodd"></path><path id="path1" d="M292.800 17.000 C 292.030 17.524,290.770 18.170,290.000 18.435 C 289.230 18.699,288.510 19.025,288.400 19.158 C 288.057 19.573,285.203 20.800,284.581 20.800 C 284.255 20.800,283.677 20.959,283.295 21.153 C 282.913 21.348,282.150 21.689,281.600 21.912 C 281.050 22.135,279.219 22.985,277.530 23.801 C 275.770 24.652,274.251 25.155,273.969 24.981 C 273.679 24.802,273.579 24.842,273.724 25.078 C 274.051 25.606,272.469 27.290,271.949 26.968 C 271.727 26.831,271.646 26.458,271.768 26.139 C 271.896 25.806,271.817 25.666,271.585 25.809 C 271.361 25.947,271.205 26.272,271.237 26.530 C 271.360 27.530,271.183 28.037,270.793 27.796 C 270.570 27.658,270.508 27.349,270.655 27.111 C 270.817 26.849,270.737 26.792,270.455 26.966 C 270.198 27.125,270.085 27.414,270.205 27.608 C 270.485 28.061,269.007 28.864,268.588 28.486 C 268.414 28.329,268.390 28.406,268.534 28.658 C 268.678 28.910,268.538 29.215,268.223 29.336 C 267.891 29.463,267.575 29.270,267.471 28.878 C 267.306 28.249,267.289 28.250,267.246 28.887 C 267.219 29.298,266.978 29.490,266.648 29.363 C 266.345 29.247,265.760 29.576,265.348 30.094 C 264.937 30.612,263.430 31.744,262.000 32.609 C 260.570 33.473,258.609 34.770,257.642 35.490 C 255.776 36.881,254.184 37.359,255.371 36.171 C 256.397 35.146,256.086 34.980,255.018 35.983 C 254.477 36.491,254.072 37.090,254.118 37.314 C 254.219 37.816,251.702 39.600,250.892 39.600 C 250.392 39.600,250.384 39.493,250.839 38.900 C 251.134 38.515,250.886 38.636,250.288 39.170 C 249.120 40.211,248.895 40.602,249.700 40.193 C 249.975 40.053,249.775 40.313,249.256 40.770 C 248.181 41.715,247.611 41.827,247.575 41.100 C 247.561 40.825,247.382 41.017,247.178 41.526 C 246.974 42.035,246.638 42.347,246.431 42.219 C 246.224 42.091,245.772 42.390,245.427 42.882 C 245.082 43.375,244.800 43.629,244.800 43.447 C 244.800 43.264,244.278 43.674,243.640 44.358 C 243.001 45.041,242.181 45.600,241.816 45.600 C 241.425 45.600,241.267 45.785,241.432 46.052 C 241.599 46.321,241.497 46.432,241.181 46.327 C 240.889 46.230,240.317 46.483,239.910 46.890 C 239.504 47.296,238.999 47.523,238.790 47.394 C 238.581 47.264,238.506 47.410,238.624 47.717 C 238.752 48.052,238.229 48.743,237.321 49.438 C 235.099 51.139,233.204 52.401,232.882 52.394 C 232.727 52.391,232.870 52.197,233.200 51.963 C 233.681 51.623,233.687 51.570,233.229 51.693 C 232.914 51.778,232.464 52.182,232.229 52.591 C 231.647 53.601,229.374 55.657,227.970 56.444 C 227.338 56.798,226.931 57.198,227.065 57.331 C 227.199 57.465,226.916 57.499,226.437 57.407 C 225.810 57.286,225.441 57.511,225.124 58.207 C 224.881 58.739,224.529 59.080,224.342 58.964 C 224.154 58.848,224.000 58.956,224.000 59.205 C 224.000 60.051,220.952 62.364,220.090 62.173 C 219.809 62.111,219.776 62.155,220.014 62.271 C 220.520 62.518,219.332 64.004,218.638 63.994 C 218.397 63.991,218.470 63.797,218.800 63.563 C 219.333 63.186,219.333 63.159,218.800 63.320 C 218.470 63.419,218.239 63.685,218.287 63.912 C 218.335 64.138,218.076 64.566,217.710 64.862 C 217.154 65.313,217.099 65.313,217.371 64.860 C 217.633 64.425,217.536 64.406,216.871 64.762 C 216.416 65.005,215.917 65.411,215.760 65.664 C 215.585 65.948,215.653 66.015,215.938 65.838 C 216.192 65.681,216.400 65.734,216.400 65.957 C 216.400 66.179,216.154 66.504,215.853 66.680 C 215.122 67.108,210.517 71.169,209.481 72.300 C 209.027 72.795,208.298 73.200,207.861 73.200 C 207.424 73.200,207.189 73.323,207.339 73.472 C 207.767 73.900,205.543 75.996,204.625 76.032 C 204.171 76.049,204.023 76.153,204.296 76.264 C 204.966 76.534,203.921 77.600,202.986 77.600 C 202.543 77.600,202.396 77.812,202.553 78.221 C 202.689 78.577,202.622 78.737,202.395 78.597 C 202.178 78.463,202.000 78.543,202.000 78.776 C 202.000 79.009,201.807 79.200,201.571 79.200 C 200.977 79.200,200.001 80.233,199.994 80.871 C 199.989 81.262,199.886 81.243,199.600 80.800 C 199.387 80.470,199.189 80.380,199.160 80.600 C 199.131 80.820,199.083 81.210,199.054 81.467 C 198.982 82.093,182.291 99.006,181.870 98.879 C 181.689 98.825,181.654 98.964,181.793 99.188 C 181.932 99.413,181.585 99.806,181.023 100.063 C 180.460 100.319,179.997 100.815,179.994 101.164 C 179.989 101.683,179.923 101.698,179.637 101.247 C 179.379 100.838,179.217 101.013,179.019 101.913 C 178.761 103.086,177.875 103.817,177.209 103.406 C 177.034 103.297,176.645 103.522,176.345 103.904 C 175.852 104.534,175.867 104.548,176.500 104.051 C 177.093 103.586,177.200 103.586,177.199 104.051 C 177.197 104.698,171.718 110.800,171.139 110.800 C 170.527 110.800,169.401 112.073,169.393 112.773 C 169.388 113.199,169.066 113.369,168.393 113.302 C 167.847 113.249,166.410 113.155,165.200 113.095 C 163.990 113.034,162.741 112.821,162.424 112.622 C 162.045 112.383,161.791 112.426,161.685 112.746 C 161.559 113.123,161.378 113.116,160.884 112.717 C 160.533 112.433,160.354 112.380,160.486 112.600 C 160.641 112.860,158.809 112.984,155.263 112.954 C 151.043 112.919,150.437 112.971,152.600 113.184 C 154.140 113.335,155.260 113.491,155.090 113.529 C 154.919 113.568,155.076 114.173,155.438 114.874 C 157.282 118.439,155.895 121.133,139.410 146.000 C 133.649 154.690,127.175 164.770,125.024 168.400 C 122.873 172.030,119.987 176.800,118.610 179.000 C 117.233 181.200,115.519 184.170,114.802 185.600 C 112.587 190.016,110.306 193.213,105.868 198.121 C 100.614 203.932,100.499 204.800,104.986 204.800 C 107.526 204.800,107.680 205.489,105.919 208.977 C 105.135 210.529,104.028 213.041,103.460 214.557 L 102.426 217.314 103.313 218.341 C 105.481 220.852,129.482 244.898,130.200 245.279 C 131.084 245.749,130.239 244.726,126.328 240.600 C 123.764 237.895,121.200 234.593,121.200 233.997 C 121.200 233.778,121.020 233.600,120.800 233.600 C 120.580 233.600,120.400 233.414,120.400 233.186 C 120.400 232.627,124.412 233.146,125.200 233.807 C 125.530 234.084,126.383 234.435,127.095 234.586 C 127.808 234.738,128.483 235.011,128.595 235.193 C 128.708 235.375,129.835 236.105,131.100 236.815 C 132.365 237.526,134.088 238.648,134.928 239.309 C 135.768 239.971,137.601 241.098,139.001 241.815 C 141.679 243.186,141.988 243.403,144.282 245.521 C 145.069 246.248,145.937 246.756,146.212 246.651 C 146.487 246.545,147.084 246.806,147.539 247.229 C 148.366 247.999,149.436 248.305,149.035 247.657 C 148.919 247.468,148.982 246.761,149.176 246.084 C 149.425 245.217,149.373 244.643,149.001 244.133 C 148.665 243.674,148.599 243.175,148.820 242.762 C 149.083 242.272,148.915 241.999,148.132 241.642 C 147.563 241.382,147.196 241.071,147.318 240.949 C 147.439 240.827,147.291 240.024,146.987 239.164 C 146.684 238.304,146.563 237.595,146.718 237.588 C 146.873 237.581,146.677 237.388,146.282 237.158 C 145.811 236.884,145.649 236.476,145.809 235.970 C 145.947 235.538,145.866 235.200,145.627 235.200 C 145.392 235.200,145.233 235.065,145.273 234.900 C 145.373 234.487,144.332 231.097,143.947 230.579 C 143.774 230.348,143.737 229.762,143.864 229.277 C 143.991 228.792,143.886 228.144,143.631 227.837 C 143.375 227.529,143.077 226.225,142.968 224.939 C 142.859 223.653,142.672 222.150,142.552 221.600 C 142.369 220.758,141.998 216.057,141.953 214.000 C 141.892 211.177,142.197 207.252,142.529 206.600 C 142.753 206.160,142.970 204.672,143.011 203.294 C 143.058 201.723,143.312 200.529,143.692 200.094 C 144.025 199.712,144.526 198.140,144.804 196.600 C 145.294 193.892,145.591 193.080,148.055 187.699 C 148.685 186.323,149.200 184.868,149.200 184.466 C 149.200 184.063,149.920 182.367,150.800 180.697 C 151.680 179.026,152.400 177.371,152.400 177.017 C 152.400 176.664,152.666 176.273,152.990 176.148 C 153.625 175.905,154.800 173.821,154.800 172.939 C 154.800 172.642,154.977 172.400,155.192 172.400 C 155.408 172.400,155.694 171.963,155.828 171.429 C 155.962 170.896,156.416 170.148,156.836 169.767 C 157.256 169.387,157.600 168.891,157.600 168.664 C 157.600 168.437,157.950 167.879,158.378 167.424 C 158.806 166.968,159.726 165.517,160.423 164.198 C 161.120 162.879,161.934 161.523,162.230 161.185 C 162.527 160.847,163.049 159.902,163.390 159.085 C 163.731 158.268,164.161 157.600,164.346 157.600 C 164.530 157.600,165.292 156.668,166.040 155.528 C 168.193 152.248,168.611 151.664,169.639 150.498 C 170.171 149.894,171.315 148.320,172.180 147.000 C 173.045 145.680,173.899 144.540,174.077 144.467 C 174.255 144.393,174.400 144.094,174.400 143.802 C 174.400 143.510,174.940 142.817,175.600 142.261 C 176.260 141.706,176.800 141.097,176.800 140.907 C 176.800 140.717,177.520 139.859,178.400 139.000 C 179.280 138.141,180.000 137.243,180.000 137.005 C 180.000 136.592,181.064 135.250,183.900 132.084 C 184.615 131.286,185.200 130.401,185.200 130.117 C 185.200 129.832,185.358 129.645,185.552 129.700 C 185.936 129.809,188.000 127.747,188.000 127.255 C 188.000 127.088,188.393 126.512,188.874 125.975 C 189.354 125.439,190.551 124.100,191.532 123.000 C 192.513 121.900,193.875 120.388,194.558 119.640 C 195.241 118.892,196.073 117.871,196.407 117.372 C 197.100 116.336,200.349 112.589,203.644 109.026 C 204.878 107.692,206.485 105.910,207.215 105.066 C 207.946 104.222,209.061 102.977,209.694 102.300 C 210.735 101.185,213.418 98.146,215.573 95.639 C 216.028 95.110,216.400 94.525,216.400 94.339 C 216.400 94.152,216.670 94.000,217.000 94.000 C 217.330 94.000,217.600 93.765,217.600 93.478 C 217.600 93.191,218.545 92.044,219.700 90.929 C 221.392 89.297,224.403 86.136,228.398 81.800 C 228.995 81.153,239.529 70.555,248.834 61.242 C 253.582 56.489,259.432 50.751,261.834 48.492 C 264.235 46.232,267.442 43.217,268.960 41.792 C 270.478 40.366,271.835 39.200,271.977 39.200 C 272.118 39.200,273.126 38.376,274.217 37.370 C 275.308 36.363,276.764 35.148,277.453 34.670 C 279.166 33.482,284.418 29.202,285.400 28.194 C 285.840 27.742,288.303 25.624,290.874 23.485 C 294.845 20.181,297.200 17.807,297.200 17.106 C 297.200 17.013,296.795 16.951,296.300 16.968 C 295.781 16.987,295.442 16.788,295.500 16.500 C 295.658 15.712,294.330 15.957,292.800 17.000 M146.400 112.758 C 146.400 112.954,146.833 113.089,147.362 113.058 C 147.891 113.026,148.240 112.865,148.138 112.700 C 147.877 112.276,146.400 112.325,146.400 112.758 M119.200 115.624 C 119.200 115.857,119.020 115.936,118.800 115.800 C 118.580 115.664,118.400 115.743,118.400 115.976 C 118.400 116.209,118.209 116.400,117.976 116.400 C 117.743 116.400,117.672 116.207,117.818 115.970 C 117.964 115.734,117.712 115.773,117.258 116.057 C 116.661 116.430,116.566 116.662,116.916 116.894 C 117.271 117.129,117.207 117.328,116.676 117.641 C 116.278 117.875,115.319 118.623,114.544 119.303 C 113.770 119.982,112.836 120.572,112.468 120.614 C 111.235 120.753,110.304 121.293,110.785 121.591 C 111.097 121.784,111.021 122.046,110.542 122.435 C 110.093 122.800,109.953 122.823,110.147 122.500 C 110.662 121.643,109.809 121.954,109.188 122.849 C 108.865 123.316,108.375 123.933,108.100 124.220 C 107.825 124.508,107.600 124.923,107.600 125.142 C 107.600 125.362,107.126 125.915,106.546 126.371 C 105.966 126.827,105.619 127.200,105.775 127.200 C 105.930 127.200,105.787 127.470,105.457 127.800 C 104.680 128.577,104.250 128.567,104.553 127.779 C 104.698 127.401,104.625 127.261,104.368 127.420 C 104.136 127.563,104.047 127.945,104.171 128.267 C 104.450 128.995,102.587 131.466,98.070 136.360 C 96.162 138.428,94.419 140.318,94.198 140.560 C 93.191 141.662,90.292 145.311,87.810 148.600 C 86.315 150.580,83.770 153.649,82.155 155.419 C 78.469 159.457,75.136 163.841,73.961 166.191 C 73.465 167.186,72.925 168.000,72.761 168.000 C 72.598 168.000,71.520 169.305,70.366 170.900 C 69.212 172.495,67.655 174.430,66.905 175.200 C 64.842 177.320,60.220 183.595,59.080 185.824 C 57.979 187.977,54.527 193.137,51.458 197.218 C 49.304 200.082,47.819 202.752,48.179 203.113 C 48.448 203.381,53.510 201.028,55.432 199.741 C 56.137 199.269,57.318 198.757,58.057 198.604 C 60.376 198.122,66.522 195.542,68.400 194.262 C 76.608 188.665,80.671 183.928,86.082 173.644 C 86.705 172.459,89.513 168.049,92.320 163.844 C 95.127 159.640,98.164 155.030,99.069 153.600 C 99.974 152.170,102.669 148.156,105.057 144.679 C 107.446 141.202,109.925 137.512,110.566 136.479 C 111.207 135.446,113.237 132.318,115.078 129.530 C 118.643 124.127,121.819 117.879,121.370 117.151 C 121.220 116.909,121.339 116.561,121.635 116.378 C 122.033 116.133,121.883 115.936,121.060 115.623 C 119.656 115.089,119.200 115.089,119.200 115.624 M347.200 171.255 C 344.855 173.801,344.916 173.895,347.363 171.508 C 348.443 170.455,349.253 169.528,349.163 169.447 C 349.073 169.367,348.190 170.181,347.200 171.255 M119.108 231.125 C 119.206 231.418,119.023 231.507,118.633 231.357 C 118.285 231.224,118.000 230.939,118.000 230.724 C 118.000 230.198,118.909 230.527,119.108 231.125 M103.050 233.119 C 102.643 233.777,103.529 234.631,104.063 234.097 C 104.459 233.701,104.417 233.600,103.856 233.600 C 103.469 233.600,103.264 233.420,103.400 233.200 C 103.536 232.980,103.557 232.800,103.447 232.800 C 103.337 232.800,103.158 232.944,103.050 233.119 M107.569 236.372 C 107.887 236.574,108.151 237.406,108.169 238.266 C 108.198 239.715,109.449 241.600,110.381 241.600 C 110.567 241.600,113.933 244.676,117.860 248.436 C 126.202 256.423,132.540 262.207,131.400 260.793 C 130.960 260.247,129.880 259.101,129.000 258.247 C 128.090 257.364,127.601 256.621,127.867 256.524 C 128.124 256.431,127.517 255.602,126.513 254.678 C 125.512 253.755,120.892 249.178,116.246 244.507 C 111.601 239.835,107.620 236.013,107.400 236.013 C 107.180 236.013,107.256 236.174,107.569 236.372 M103.885 243.114 C 102.848 244.166,102.000 245.168,102.000 245.341 C 102.000 245.807,105.579 242.786,106.035 241.935 C 106.723 240.650,105.830 241.139,103.885 243.114 M253.339 257.803 C 241.422 265.720,223.628 276.122,205.247 285.916 C 194.384 291.704,193.612 292.209,194.520 292.928 C 194.922 293.246,195.175 294.405,195.297 296.486 C 195.565 301.059,196.861 301.852,200.715 299.800 C 204.367 297.856,205.544 299.784,203.821 304.886 C 203.037 307.208,202.498 309.726,202.171 312.600 C 201.843 315.477,201.843 314.857,202.170 319.982 C 202.572 326.271,203.639 326.580,204.991 320.800 C 205.017 320.690,205.447 319.790,205.948 318.800 C 206.890 316.936,208.914 308.908,208.578 308.365 C 208.474 308.195,208.681 305.569,209.040 302.528 C 209.398 299.488,209.727 294.972,209.769 292.493 L 209.847 287.986 211.617 286.183 C 213.667 284.093,214.456 283.545,221.200 279.518 C 235.941 270.716,259.815 254.786,258.200 254.828 C 257.980 254.834,255.792 256.173,253.339 257.803 M90.894 258.277 C 89.008 260.946,86.205 267.335,81.803 279.000 C 79.632 284.752,76.385 300.589,76.454 305.084 C 76.517 309.127,76.605 308.836,77.385 302.000 C 78.143 295.359,78.599 293.028,79.954 288.880 C 80.579 286.966,81.850 282.880,82.777 279.800 C 85.157 271.899,86.146 269.354,89.285 263.057 C 91.952 257.708,92.548 255.935,90.894 258.277 M144.793 271.700 C 147.099 274.065,149.034 276.000,149.093 276.000 C 149.382 276.000,148.894 275.487,144.900 271.593 L 140.600 267.400 144.793 271.700 M162.000 290.582 C 162.000 290.682,162.450 291.214,163.000 291.764 C 164.154 292.918,164.274 292.790,163.354 291.386 C 162.789 290.524,162.000 290.055,162.000 290.582 M170.884 319.703 C 170.931 320.275,171.095 320.665,171.249 320.570 C 171.581 320.364,171.473 319.340,171.077 318.944 C 170.923 318.790,170.836 319.132,170.884 319.703 M231.829 331.829 C 231.049 332.609,231.030 332.840,231.769 332.557 C 232.082 332.436,232.436 332.082,232.557 331.769 C 232.840 331.030,232.609 331.049,231.829 331.829 M161.882 337.725 C 161.046 338.589,160.428 339.361,160.508 339.441 C 160.587 339.520,161.349 338.872,162.200 338.000 C 163.051 337.128,163.670 336.356,163.574 336.284 C 163.478 336.212,162.717 336.861,161.882 337.725 M201.566 352.752 C 200.403 353.940,200.244 354.617,201.392 353.494 C 202.013 352.886,202.449 352.324,202.361 352.246 C 202.272 352.167,201.915 352.395,201.566 352.752 " stroke="none" fill="#314a1f" fill-rule="evenodd"></path><path id="path2" d="M86.200 229.639 C 85.320 229.806,83.925 229.991,83.100 230.050 C 82.275 230.108,81.600 230.279,81.600 230.429 C 81.600 230.578,80.593 230.784,79.363 230.886 C 78.133 230.988,77.008 231.255,76.863 231.478 C 76.718 231.701,75.670 232.104,74.533 232.374 C 73.396 232.643,72.153 233.210,71.771 233.632 C 71.389 234.054,70.868 234.400,70.613 234.400 C 70.359 234.400,69.797 234.729,69.365 235.132 C 68.933 235.535,68.059 236.205,67.422 236.622 C 65.633 237.795,61.468 241.814,59.544 244.225 C 58.589 245.421,57.601 246.400,57.347 246.400 C 56.929 246.400,56.439 247.154,56.180 248.200 C 55.891 249.363,54.867 250.811,54.674 250.328 C 54.558 250.038,54.446 250.250,54.425 250.800 C 54.386 251.850,53.889 252.892,53.455 252.834 C 52.772 252.743,52.644 252.840,53.082 253.119 C 53.438 253.345,53.265 254.053,52.424 255.820 C 51.796 257.137,50.444 261.271,49.419 265.007 C 48.394 268.743,47.297 272.700,46.980 273.800 C 46.663 274.900,45.947 277.420,45.389 279.400 C 44.830 281.380,44.213 283.540,44.017 284.200 C 43.820 284.860,43.254 286.840,42.758 288.600 C 40.992 294.864,34.933 312.817,31.484 322.000 C 30.286 325.190,29.178 328.385,29.021 329.100 C 28.865 329.815,28.571 330.400,28.368 330.400 C 28.166 330.400,28.000 330.682,28.000 331.026 C 28.000 331.370,27.657 332.495,27.239 333.526 C 26.820 334.557,25.729 337.380,24.814 339.800 C 22.886 344.899,22.093 346.929,21.378 348.600 C 21.095 349.260,19.849 352.314,18.609 355.387 C 17.369 358.460,16.103 361.520,15.796 362.187 C 15.488 362.854,14.854 364.390,14.387 365.600 C 13.920 366.810,13.290 368.340,12.986 369.000 C 12.408 370.259,8.895 378.357,6.999 382.800 C 6.389 384.230,5.555 386.132,5.145 387.026 C 4.056 389.403,4.203 390.124,6.192 392.170 C 9.624 395.702,10.278 395.569,14.895 390.400 C 19.544 385.196,22.251 382.464,27.386 377.791 C 35.179 370.699,39.575 365.625,41.639 361.337 C 42.152 360.272,42.863 358.950,43.219 358.400 C 43.853 357.419,45.519 351.972,45.788 350.000 C 45.863 349.450,46.120 347.560,46.360 345.800 C 46.600 344.040,46.968 341.700,47.177 340.600 C 48.041 336.050,48.801 329.830,49.215 323.918 C 49.473 320.237,50.052 315.932,50.614 313.518 C 51.141 311.253,52.050 306.970,52.634 304.000 C 53.891 297.605,55.489 291.491,57.129 286.800 C 57.783 284.930,58.804 281.600,59.398 279.400 C 60.950 273.653,63.227 266.267,63.590 265.800 C 63.762 265.580,64.847 262.790,66.002 259.600 C 69.625 249.591,74.870 242.180,80.424 239.220 L 82.851 237.926 88.525 238.063 C 99.841 238.336,100.558 241.253,92.195 252.997 C 88.623 258.015,84.000 265.416,84.000 266.118 C 84.000 266.241,83.392 267.660,82.649 269.271 C 70.418 295.788,70.914 318.923,83.800 322.910 C 88.998 324.519,102.883 323.785,112.000 321.421 C 114.970 320.650,117.952 320.016,118.627 320.010 C 120.722 319.993,130.901 316.312,133.000 314.813 C 133.220 314.656,134.750 314.037,136.400 313.438 C 140.727 311.868,143.490 310.211,149.745 305.437 C 158.038 299.107,163.292 297.937,167.346 301.515 C 168.100 302.181,168.115 302.161,167.853 300.800 C 167.592 299.439,164.018 291.811,164.006 292.589 C 164.003 292.803,163.709 292.563,163.354 292.056 L 162.708 291.133 158.054 295.697 C 146.122 307.396,135.291 313.139,116.086 317.951 C 90.855 324.272,79.465 323.002,78.511 313.760 C 78.260 311.331,79.764 305.619,80.657 305.606 C 81.204 305.599,81.695 304.478,81.378 303.964 C 81.254 303.764,81.333 303.600,81.553 303.600 C 81.773 303.600,82.059 303.772,82.189 303.983 C 82.319 304.193,82.690 304.264,83.013 304.140 C 83.340 304.014,83.600 304.141,83.600 304.426 C 83.600 308.725,89.477 304.269,91.019 298.800 C 91.298 297.810,92.079 295.200,92.754 293.000 C 93.429 290.800,94.091 288.190,94.227 287.200 C 94.362 286.210,94.798 284.320,95.196 283.000 C 95.595 281.680,96.123 279.250,96.370 277.600 C 96.618 275.950,97.455 272.080,98.231 269.000 C 99.007 265.920,99.726 262.950,99.829 262.400 C 99.932 261.850,100.182 261.040,100.384 260.600 C 100.586 260.160,101.157 258.647,101.652 257.238 C 102.259 255.509,103.243 253.885,104.676 252.241 C 105.844 250.902,106.800 249.616,106.800 249.384 C 106.800 249.151,107.424 248.340,108.187 247.581 C 108.950 246.821,109.580 246.084,109.587 245.942 C 109.594 245.801,110.158 245.087,110.841 244.357 L 112.081 243.029 110.941 242.114 C 110.313 241.611,109.436 240.915,108.991 240.567 C 108.414 240.115,108.182 239.464,108.182 238.297 C 108.182 237.355,107.972 236.591,107.688 236.496 C 107.417 236.406,107.297 236.167,107.421 235.966 C 107.545 235.765,107.301 235.600,106.878 235.600 C 106.454 235.600,105.679 235.267,105.154 234.860 C 104.629 234.453,103.963 234.202,103.673 234.302 C 103.337 234.418,103.192 234.218,103.273 233.751 C 103.343 233.348,103.220 233.004,103.000 232.986 C 101.580 232.874,100.000 232.256,100.000 231.813 C 100.000 231.525,99.775 231.309,99.500 231.334 C 98.555 231.420,95.600 230.729,95.600 230.423 C 95.600 230.156,93.261 229.807,89.000 229.438 C 88.340 229.381,87.080 229.471,86.200 229.639 M106.035 241.935 C 105.579 242.786,102.000 245.807,102.000 245.341 C 102.000 244.920,105.682 241.200,106.099 241.200 C 106.280 241.200,106.251 241.531,106.035 241.935 M89.285 263.057 C 86.146 269.354,85.157 271.899,82.777 279.800 C 81.850 282.880,80.579 286.966,79.954 288.880 C 78.599 293.028,78.143 295.359,77.385 302.000 C 76.605 308.836,76.517 309.127,76.454 305.084 C 76.385 300.589,79.632 284.752,81.803 279.000 C 86.205 267.335,89.008 260.946,90.894 258.277 C 92.548 255.935,91.952 257.708,89.285 263.057 " stroke="none" fill="#853d13" fill-rule="evenodd"></path><path id="path3" d="M80.294 239.253 C 74.815 242.272,69.574 249.733,66.002 259.600 C 64.847 262.790,63.762 265.580,63.590 265.800 C 63.227 266.267,60.950 273.653,59.398 279.400 C 58.804 281.600,57.783 284.930,57.129 286.800 C 55.489 291.491,53.891 297.605,52.634 304.000 C 52.050 306.970,51.141 311.253,50.614 313.518 C 50.052 315.932,49.473 320.237,49.215 323.918 C 48.801 329.830,48.041 336.050,47.177 340.600 C 46.968 341.700,46.600 344.040,46.360 345.800 C 46.120 347.560,45.863 349.450,45.788 350.000 C 45.519 351.972,43.853 357.419,43.219 358.400 C 42.863 358.950,42.152 360.272,41.639 361.337 C 39.575 365.625,35.179 370.699,27.386 377.791 C 22.251 382.464,19.544 385.196,14.895 390.400 C 10.613 395.194,10.106 395.391,7.300 393.355 C 6.805 392.996,6.400 392.813,6.400 392.949 C 6.400 393.435,9.736 395.600,10.485 395.600 C 10.906 395.600,13.174 394.772,15.525 393.760 C 20.444 391.644,28.390 388.390,35.600 385.540 C 38.350 384.453,40.960 383.398,41.400 383.194 C 42.644 382.619,50.928 379.270,55.800 377.372 C 58.220 376.429,62.540 374.736,65.400 373.609 C 70.851 371.462,72.602 370.821,84.000 366.806 C 98.828 361.584,111.749 357.474,123.000 354.403 C 142.562 349.064,145.832 347.856,152.400 343.537 C 167.912 333.339,175.455 311.031,167.528 298.800 C 167.230 298.339,167.199 298.385,167.398 299.000 C 168.181 301.426,168.164 302.237,167.346 301.515 C 163.292 297.937,158.038 299.107,149.745 305.437 C 143.490 310.211,140.727 311.868,136.400 313.438 C 134.750 314.037,133.220 314.656,133.000 314.813 C 130.901 316.312,120.722 319.993,118.627 320.010 C 117.952 320.016,114.970 320.650,112.000 321.421 C 102.883 323.785,88.998 324.519,83.800 322.910 C 70.914 318.923,70.418 295.788,82.649 269.271 C 83.392 267.660,84.000 266.241,84.000 266.118 C 84.000 265.416,88.623 258.015,92.195 252.997 C 100.591 241.205,99.853 238.306,88.400 238.091 L 82.600 237.982 80.294 239.253 M107.400 250.653 C 102.963 253.285,102.631 253.781,100.549 260.895 C 98.183 268.984,97.653 271.194,96.978 275.800 C 96.125 281.614,95.497 284.263,93.325 291.200 C 92.326 294.390,91.285 297.810,91.010 298.800 C 89.500 304.250,83.600 308.729,83.600 304.426 C 83.600 304.141,83.340 304.014,83.013 304.140 C 82.690 304.264,82.319 304.193,82.189 303.983 C 82.059 303.772,81.773 303.600,81.553 303.600 C 81.333 303.600,81.254 303.764,81.378 303.964 C 81.695 304.478,81.204 305.599,80.657 305.606 C 79.764 305.619,78.260 311.331,78.511 313.760 C 79.317 321.571,86.220 323.467,103.400 320.595 C 124.773 317.023,140.902 310.586,152.220 301.111 C 155.641 298.247,161.200 292.750,161.200 292.232 C 161.200 291.865,156.636 287.652,149.000 280.971 C 145.260 277.699,140.400 273.300,138.200 271.196 C 129.232 262.619,117.401 252.210,114.622 250.452 C 111.998 248.792,110.467 248.835,107.400 250.653 M133.907 285.201 C 139.825 287.450,140.820 289.827,135.821 289.771 C 132.216 289.731,128.800 287.795,128.800 285.792 C 128.800 284.119,130.532 283.918,133.907 285.201 " stroke="none" fill="#ea9831" fill-rule="evenodd"></path><path id="path4" d="M339.000 0.563 C 337.020 0.819,335.040 1.223,334.600 1.461 C 334.160 1.698,332.720 1.989,331.400 2.106 C 328.535 2.360,327.875 2.499,327.570 2.911 C 327.443 3.082,326.183 3.407,324.770 3.633 C 322.095 4.060,318.917 5.008,318.210 5.588 C 317.984 5.774,316.951 6.052,315.913 6.206 C 314.875 6.361,313.831 6.722,313.593 7.009 C 313.355 7.296,312.269 7.653,311.180 7.803 C 310.091 7.953,309.200 8.219,309.200 8.394 C 309.200 8.570,308.705 8.837,308.100 8.987 C 307.495 9.138,306.370 9.536,305.600 9.872 C 304.830 10.207,303.750 10.664,303.200 10.887 C 302.650 11.111,301.887 11.452,301.505 11.647 C 301.123 11.841,300.558 12.000,300.248 12.000 C 299.939 12.000,299.581 12.272,299.454 12.604 C 299.327 12.936,299.082 13.174,298.911 13.133 C 298.084 12.935,294.475 14.335,289.356 16.839 C 286.252 18.358,283.522 19.600,283.289 19.600 C 283.057 19.600,282.807 19.735,282.733 19.900 C 282.660 20.065,281.610 20.699,280.400 21.309 C 279.190 21.918,277.300 22.957,276.200 23.616 C 275.100 24.276,273.752 25.003,273.205 25.234 C 272.658 25.464,271.883 26.004,271.482 26.435 C 271.081 26.865,270.555 27.096,270.314 26.947 C 270.073 26.798,269.985 26.852,270.117 27.066 C 270.249 27.280,269.737 27.679,268.979 27.953 C 268.220 28.227,267.600 28.721,267.600 29.049 C 267.600 29.683,267.832 29.601,269.700 28.307 C 270.305 27.888,270.803 27.693,270.806 27.873 C 270.809 28.053,270.975 27.943,271.174 27.628 C 271.373 27.314,271.852 27.010,272.238 26.953 C 272.624 26.897,273.089 26.584,273.271 26.259 C 273.554 25.754,278.350 23.254,281.600 21.918 C 282.150 21.692,282.913 21.348,283.295 21.153 C 283.677 20.959,284.255 20.800,284.581 20.800 C 285.208 20.800,288.062 19.570,288.400 19.154 C 288.510 19.019,289.050 18.773,289.600 18.609 C 290.150 18.445,291.458 17.791,292.506 17.155 C 294.532 15.927,295.664 15.680,295.500 16.500 C 295.442 16.788,295.781 16.987,296.300 16.968 C 296.795 16.951,297.200 17.013,297.200 17.106 C 297.200 17.807,294.845 20.181,290.874 23.485 C 288.303 25.624,285.840 27.742,285.400 28.194 C 284.418 29.202,279.166 33.482,277.453 34.670 C 276.764 35.148,275.308 36.363,274.217 37.370 C 273.126 38.376,272.118 39.200,271.977 39.200 C 271.835 39.200,270.478 40.366,268.960 41.792 C 267.442 43.217,264.235 46.232,261.834 48.492 C 259.432 50.751,253.582 56.489,248.834 61.242 C 239.529 70.555,228.995 81.153,228.398 81.800 C 224.403 86.136,221.392 89.297,219.700 90.929 C 218.545 92.044,217.600 93.191,217.600 93.478 C 217.600 93.765,217.330 94.000,217.000 94.000 C 216.670 94.000,216.400 94.152,216.400 94.339 C 216.400 94.525,216.028 95.110,215.573 95.639 C 213.418 98.146,210.735 101.185,209.694 102.300 C 209.061 102.977,207.946 104.222,207.215 105.066 C 206.485 105.910,204.878 107.692,203.644 109.026 C 200.349 112.589,197.100 116.336,196.407 117.372 C 196.073 117.871,195.241 118.892,194.558 119.640 C 193.875 120.388,192.513 121.900,191.532 123.000 C 190.551 124.100,189.354 125.439,188.874 125.975 C 188.393 126.512,188.000 127.088,188.000 127.255 C 188.000 127.747,185.936 129.809,185.552 129.700 C 185.358 129.645,185.200 129.832,185.200 130.117 C 185.200 130.401,184.615 131.286,183.900 132.084 C 181.064 135.250,180.000 136.592,180.000 137.005 C 180.000 137.243,179.280 138.141,178.400 139.000 C 177.520 139.859,176.800 140.717,176.800 140.907 C 176.800 141.097,176.260 141.706,175.600 142.261 C 174.940 142.817,174.400 143.510,174.400 143.802 C 174.400 144.094,174.255 144.393,174.077 144.467 C 173.899 144.540,173.045 145.680,172.180 147.000 C 171.315 148.320,170.171 149.894,169.639 150.498 C 168.611 151.664,168.193 152.248,166.040 155.528 C 165.292 156.668,164.530 157.600,164.346 157.600 C 164.161 157.600,163.731 158.268,163.390 159.085 C 163.049 159.902,162.527 160.847,162.230 161.185 C 161.934 161.523,161.120 162.879,160.423 164.198 C 159.726 165.517,158.806 166.968,158.378 167.424 C 157.950 167.879,157.600 168.437,157.600 168.664 C 157.600 168.891,157.256 169.387,156.836 169.767 C 156.416 170.148,155.962 170.896,155.828 171.429 C 155.694 171.963,155.408 172.400,155.192 172.400 C 154.977 172.400,154.800 172.642,154.800 172.939 C 154.800 173.821,153.625 175.905,152.990 176.148 C 152.666 176.273,152.400 176.664,152.400 177.017 C 152.400 177.371,151.680 179.026,150.800 180.697 C 149.920 182.367,149.200 184.063,149.200 184.466 C 149.200 184.868,148.685 186.323,148.055 187.699 C 145.591 193.080,145.294 193.892,144.804 196.600 C 144.526 198.140,144.025 199.712,143.692 200.094 C 143.312 200.529,143.058 201.723,143.011 203.294 C 142.970 204.672,142.753 206.160,142.529 206.600 C 142.197 207.252,141.892 211.177,141.953 214.000 C 141.998 216.057,142.369 220.758,142.552 221.600 C 142.672 222.150,142.859 223.653,142.968 224.939 C 143.077 226.225,143.375 227.529,143.631 227.837 C 143.886 228.144,143.991 228.792,143.864 229.277 C 143.737 229.762,143.774 230.348,143.947 230.579 C 144.332 231.097,145.373 234.487,145.273 234.900 C 145.233 235.065,145.392 235.200,145.627 235.200 C 145.866 235.200,145.947 235.538,145.809 235.970 C 145.649 236.476,145.811 236.884,146.282 237.158 C 146.677 237.388,146.873 237.581,146.718 237.588 C 146.563 237.595,146.684 238.304,146.987 239.164 C 147.291 240.024,147.439 240.827,147.318 240.949 C 147.196 241.071,147.563 241.382,148.132 241.642 C 148.915 241.999,149.083 242.272,148.820 242.762 C 148.599 243.175,148.665 243.674,149.001 244.133 C 149.373 244.643,149.425 245.217,149.176 246.084 C 148.982 246.761,148.919 247.468,149.035 247.657 C 149.436 248.305,148.366 247.999,147.539 247.229 C 147.084 246.806,146.487 246.545,146.212 246.651 C 145.937 246.756,145.069 246.248,144.282 245.521 C 141.988 243.403,141.679 243.186,139.001 241.815 C 137.601 241.098,135.768 239.971,134.928 239.309 C 134.088 238.648,132.365 237.526,131.100 236.815 C 129.835 236.105,128.708 235.375,128.595 235.193 C 128.483 235.011,127.808 234.738,127.095 234.586 C 126.383 234.435,125.530 234.084,125.200 233.807 C 124.412 233.146,120.400 232.627,120.400 233.186 C 120.400 233.414,120.580 233.600,120.800 233.600 C 121.020 233.600,121.200 233.778,121.200 233.997 C 121.200 234.593,123.764 237.895,126.328 240.600 C 130.239 244.726,131.084 245.749,130.200 245.279 C 129.482 244.898,105.481 220.852,103.313 218.341 L 102.426 217.314 103.460 214.557 C 104.028 213.041,105.135 210.529,105.919 208.977 C 107.680 205.489,107.526 204.800,104.986 204.800 C 100.499 204.800,100.614 203.932,105.868 198.121 C 110.306 193.213,112.587 190.016,114.802 185.600 C 115.519 184.170,117.233 181.200,118.610 179.000 C 119.987 176.800,122.873 172.030,125.024 168.400 C 127.175 164.770,133.649 154.690,139.410 146.000 C 155.839 121.217,157.278 118.432,155.464 114.924 C 155.116 114.252,154.945 113.589,155.083 113.451 C 155.221 113.313,154.088 113.168,152.567 113.129 C 148.025 113.012,145.412 112.905,145.200 112.827 C 143.456 112.189,129.367 112.028,127.121 112.621 C 126.054 112.902,125.141 113.119,125.091 113.102 C 124.659 112.960,120.800 114.163,120.800 114.440 C 120.800 114.638,120.485 114.815,120.100 114.833 C 119.692 114.852,119.972 115.115,120.773 115.464 C 121.750 115.889,121.995 116.156,121.622 116.386 C 121.334 116.565,121.220 116.909,121.370 117.151 C 121.819 117.879,118.643 124.127,115.078 129.530 C 113.237 132.318,111.207 135.446,110.566 136.479 C 109.925 137.512,107.446 141.202,105.057 144.679 C 102.669 148.156,99.974 152.170,99.069 153.600 C 98.164 155.030,95.127 159.640,92.320 163.844 C 89.513 168.049,86.705 172.459,86.082 173.644 C 80.671 183.928,76.608 188.665,68.400 194.262 C 66.522 195.542,60.376 198.122,58.057 198.604 C 57.318 198.757,56.137 199.269,55.432 199.741 C 53.510 201.028,48.448 203.381,48.179 203.113 C 47.819 202.752,49.304 200.082,51.458 197.218 C 54.527 193.137,57.979 187.977,59.080 185.824 C 60.220 183.595,64.842 177.320,66.905 175.200 C 67.655 174.430,69.212 172.495,70.366 170.900 C 71.520 169.305,72.598 168.000,72.761 168.000 C 72.925 168.000,73.465 167.186,73.961 166.191 C 75.136 163.841,78.469 159.457,82.155 155.419 C 83.770 153.649,86.315 150.580,87.810 148.600 C 90.292 145.311,93.191 141.662,94.198 140.560 C 94.419 140.318,96.162 138.428,98.070 136.360 C 99.979 134.292,102.219 131.700,103.048 130.600 C 103.878 129.500,104.878 128.312,105.271 127.959 C 105.664 127.607,105.864 127.198,105.717 127.050 C 105.324 126.657,94.943 137.573,94.450 138.897 C 94.367 139.119,94.007 139.612,93.650 139.994 C 90.085 143.798,86.654 147.633,86.106 148.426 C 85.736 148.962,85.200 149.638,84.916 149.929 C 84.632 150.219,84.400 150.580,84.400 150.729 C 84.400 150.879,83.455 152.026,82.300 153.279 C 81.145 154.532,79.300 156.750,78.200 158.208 C 77.100 159.666,75.660 161.539,75.000 162.371 C 72.030 166.116,65.527 174.877,64.784 176.137 C 64.332 176.903,63.701 177.629,63.382 177.752 C 63.062 177.874,62.800 178.251,62.800 178.587 C 62.800 178.924,62.620 179.200,62.400 179.200 C 62.180 179.200,62.000 179.436,62.000 179.725 C 62.000 180.013,61.640 180.636,61.200 181.108 C 60.760 181.580,60.400 182.154,60.400 182.383 C 60.400 182.612,60.220 182.800,60.000 182.800 C 59.780 182.800,59.600 183.070,59.600 183.400 C 59.600 183.730,59.453 184.000,59.274 184.000 C 59.095 184.000,58.637 184.585,58.258 185.300 C 57.196 187.300,56.749 187.997,54.700 190.853 C 53.655 192.310,52.800 193.633,52.800 193.793 C 52.800 193.954,52.281 194.741,51.648 195.542 C 51.014 196.344,50.131 197.650,49.685 198.445 C 48.071 201.325,47.792 201.778,47.300 202.313 C 47.025 202.612,46.800 203.010,46.800 203.196 C 46.800 203.382,46.691 203.819,46.557 204.167 C 46.337 204.740,48.695 204.800,71.457 204.802 C 100.607 204.804,106.800 205.007,106.800 205.962 C 106.800 206.313,106.080 207.770,105.200 209.200 C 104.320 210.630,103.600 212.026,103.600 212.301 C 103.600 212.577,103.240 213.475,102.800 214.296 C 102.360 215.116,102.000 216.026,102.000 216.318 C 102.000 216.609,101.837 216.746,101.637 216.623 C 98.905 214.934,164.439 281.196,179.492 295.342 C 182.575 298.239,182.557 298.234,185.400 296.983 C 190.697 294.652,194.240 293.299,194.450 293.528 C 194.758 293.863,195.193 320.515,195.197 339.300 C 195.199 350.814,195.294 353.200,195.749 353.200 C 196.619 353.200,199.242 349.984,201.171 346.551 C 202.146 344.818,203.754 342.320,204.746 341.000 C 206.821 338.239,209.615 332.803,210.605 329.600 C 210.979 328.390,211.524 326.680,211.815 325.800 C 214.168 318.700,215.637 312.620,216.212 307.600 C 216.671 303.594,218.092 300.137,221.280 295.271 C 222.336 293.659,223.200 292.174,223.200 291.971 C 223.200 291.767,223.351 291.600,223.535 291.600 C 223.719 291.600,224.339 290.655,224.912 289.500 C 226.191 286.923,230.925 282.267,237.000 277.610 C 244.703 271.705,245.353 271.177,247.800 268.844 C 249.120 267.585,251.370 265.668,252.800 264.584 C 257.817 260.781,280.379 239.046,279.855 238.522 C 279.573 238.240,278.190 239.182,269.400 245.646 C 250.794 259.329,225.577 274.445,208.200 282.332 C 202.368 284.980,201.096 285.166,198.349 283.774 C 197.175 283.179,195.714 282.653,195.104 282.605 C 194.493 282.557,193.652 282.209,193.236 281.832 C 192.819 281.455,192.154 281.204,191.758 281.273 C 191.255 281.362,190.926 281.039,190.666 280.200 C 190.461 279.540,190.118 278.616,189.904 278.148 C 189.691 277.679,189.626 276.949,189.760 276.526 C 189.907 276.063,189.725 275.446,189.302 274.978 C 188.916 274.550,188.538 273.750,188.463 273.200 C 188.387 272.650,188.096 271.930,187.815 271.600 C 187.534 271.270,187.200 270.550,187.071 270.000 C 186.943 269.450,186.713 268.460,186.560 267.800 C 186.406 267.140,186.167 266.510,186.027 266.400 C 185.888 266.290,185.538 265.031,185.251 263.601 C 184.963 262.172,184.594 260.912,184.429 260.801 C 184.035 260.535,183.215 258.118,183.443 257.891 C 183.540 257.793,183.269 256.894,182.840 255.893 C 182.411 254.892,182.168 253.965,182.301 253.833 C 182.433 253.700,182.204 253.345,181.791 253.043 C 181.296 252.681,181.040 252.000,181.040 251.047 C 181.040 250.207,180.843 249.600,180.571 249.600 C 180.313 249.600,179.991 248.903,179.855 248.052 C 179.719 247.201,179.336 246.278,179.004 246.003 C 178.672 245.727,178.400 245.020,178.400 244.431 C 178.400 243.842,178.200 243.160,177.955 242.915 C 177.710 242.670,177.363 241.689,177.184 240.735 C 177.005 239.781,176.637 238.460,176.365 237.800 C 176.094 237.140,175.905 236.389,175.946 236.130 C 175.988 235.872,175.836 235.546,175.611 235.407 C 175.385 235.267,175.200 234.818,175.200 234.410 C 175.200 234.001,175.012 233.604,174.782 233.527 C 174.299 233.366,174.213 232.174,174.597 230.960 C 174.752 230.467,174.643 229.888,174.331 229.560 C 173.804 229.004,173.639 225.428,174.117 224.949 C 174.252 224.815,174.099 224.442,173.777 224.120 C 173.456 223.799,173.300 223.362,173.431 223.150 C 173.562 222.938,173.451 222.503,173.185 222.182 C 172.810 221.730,172.810 221.600,173.183 221.600 C 173.513 221.600,173.578 221.209,173.389 220.350 C 173.174 219.369,173.231 219.160,173.657 219.380 C 173.956 219.533,173.867 219.388,173.460 219.056 C 173.053 218.725,172.838 218.262,172.983 218.028 C 173.444 217.281,173.567 216.000,173.177 216.000 C 172.651 216.000,172.703 212.907,173.235 212.578 C 173.474 212.431,173.581 211.970,173.472 211.555 C 173.364 211.140,173.445 210.696,173.652 210.568 C 173.860 210.439,173.938 209.363,173.825 208.176 C 173.646 206.288,173.724 205.962,174.445 205.576 C 175.061 205.246,175.209 204.889,175.027 204.167 C 174.894 203.635,174.935 203.200,175.120 203.200 C 175.304 203.200,175.399 202.500,175.332 201.645 C 175.251 200.632,175.416 199.919,175.804 199.596 C 176.132 199.325,176.400 198.685,176.400 198.175 C 176.400 197.665,176.580 197.136,176.800 197.000 C 177.020 196.864,177.200 196.114,177.200 195.334 C 177.200 194.221,177.333 193.965,177.815 194.150 C 178.182 194.291,178.534 194.116,178.687 193.717 C 178.828 193.349,178.737 192.979,178.483 192.894 C 178.203 192.801,178.410 192.323,179.011 191.675 C 179.555 191.088,180.000 190.368,180.000 190.076 C 180.000 189.783,180.262 189.281,180.583 188.960 C 180.904 188.639,181.073 188.134,180.959 187.836 C 180.842 187.534,181.333 186.837,182.076 186.252 C 182.804 185.678,183.175 185.207,182.900 185.204 C 182.142 185.198,182.301 184.257,183.229 183.261 C 183.684 182.772,183.983 182.153,183.892 181.886 C 183.801 181.619,184.423 180.742,185.274 179.937 C 186.125 179.132,186.621 178.407,186.378 178.326 C 185.927 178.176,187.134 175.608,187.658 175.603 C 187.800 175.601,188.409 174.657,189.012 173.505 C 189.614 172.353,190.381 171.210,190.715 170.966 C 191.049 170.721,191.191 170.310,191.031 170.051 C 190.871 169.792,190.889 169.606,191.070 169.637 C 191.978 169.795,192.400 169.523,192.400 168.781 C 192.400 168.330,192.850 167.545,193.400 167.035 C 193.950 166.525,194.400 165.833,194.400 165.497 C 194.400 165.161,194.670 164.782,195.000 164.655 C 195.330 164.529,195.600 164.170,195.600 163.859 C 195.600 163.548,195.960 163.199,196.400 163.084 C 196.946 162.941,197.200 162.538,197.200 161.814 C 197.200 161.230,197.374 160.860,197.587 160.992 C 197.800 161.123,198.203 160.864,198.483 160.416 C 198.763 159.967,199.264 159.597,199.596 159.594 C 200.132 159.588,200.133 159.542,199.600 159.184 C 199.093 158.844,199.171 158.640,200.100 157.876 C 200.705 157.377,201.200 156.755,201.200 156.492 C 201.200 155.835,204.541 152.400,205.180 152.400 C 205.573 152.400,205.588 152.268,205.244 151.853 C 204.720 151.222,205.273 150.596,206.600 150.319 C 207.040 150.228,207.355 149.938,207.300 149.676 C 207.245 149.414,207.470 149.200,207.800 149.200 C 208.130 149.200,208.400 148.862,208.400 148.449 C 208.400 148.036,208.670 147.474,209.000 147.200 C 209.330 146.926,209.600 146.525,209.600 146.309 C 209.600 145.867,211.237 143.824,211.700 143.688 C 211.865 143.640,212.225 143.597,212.500 143.594 C 212.864 143.589,212.851 143.494,212.452 143.241 C 212.010 142.960,212.048 142.810,212.652 142.459 C 213.063 142.220,213.225 142.019,213.011 142.012 C 212.797 142.005,213.015 141.725,213.494 141.389 C 213.974 141.053,214.277 140.545,214.168 140.260 C 214.057 139.972,214.418 139.538,214.985 139.280 C 215.543 139.025,216.000 138.539,216.000 138.198 C 216.000 137.858,216.815 136.764,217.811 135.768 C 218.806 134.773,219.516 133.787,219.387 133.579 C 219.258 133.371,219.343 133.200,219.576 133.200 C 219.809 133.200,220.000 132.930,220.000 132.600 C 220.000 132.264,220.357 132.000,220.810 132.000 C 221.306 132.000,221.767 131.612,222.000 131.000 C 222.209 130.450,222.578 130.000,222.819 130.000 C 223.482 130.000,224.134 129.181,224.968 127.300 C 225.462 126.185,225.976 125.600,226.461 125.600 C 226.983 125.600,227.200 125.306,227.200 124.600 C 227.200 124.040,227.408 123.644,227.673 123.700 C 227.934 123.755,228.400 123.292,228.709 122.671 C 229.027 122.033,229.497 121.629,229.790 121.741 C 230.127 121.870,230.246 121.696,230.128 121.246 C 230.010 120.793,230.581 119.966,231.769 118.871 C 232.772 117.947,233.549 117.058,233.496 116.896 C 233.443 116.733,233.797 116.426,234.282 116.213 C 234.767 116.000,235.571 115.033,236.070 114.064 C 236.568 113.095,237.385 112.116,237.886 111.888 C 238.386 111.660,239.150 110.872,239.584 110.137 C 240.018 109.402,240.553 108.800,240.774 108.800 C 240.994 108.800,241.057 108.485,240.913 108.100 C 240.688 107.500,240.742 107.475,241.291 107.921 C 241.840 108.366,241.975 108.308,242.221 107.521 C 242.670 106.086,244.595 103.463,247.106 100.863 C 248.368 99.556,250.022 97.702,250.783 96.744 C 251.544 95.785,252.489 94.765,252.883 94.477 C 253.277 94.190,253.600 93.695,253.600 93.377 C 253.600 93.060,253.889 92.800,254.243 92.800 C 254.633 92.800,254.800 92.577,254.668 92.233 C 254.548 91.921,254.717 91.564,255.043 91.439 C 255.369 91.314,255.907 90.563,256.238 89.771 C 256.643 88.801,257.030 88.403,257.420 88.552 C 257.739 88.675,258.000 88.554,258.000 88.283 C 258.000 88.013,258.540 87.345,259.200 86.800 C 259.860 86.255,260.400 85.665,260.400 85.488 C 260.400 85.312,260.804 84.590,261.299 83.884 C 261.793 83.178,262.223 82.545,262.253 82.479 C 262.284 82.412,262.690 82.328,263.155 82.293 C 263.620 82.258,264.000 81.998,264.000 81.715 C 264.000 81.432,264.315 81.200,264.700 81.200 C 265.242 81.200,265.400 80.863,265.400 79.710 C 265.400 78.536,265.570 78.186,266.200 78.066 C 267.217 77.872,268.311 76.733,268.097 76.091 C 268.007 75.821,268.099 75.600,268.302 75.600 C 268.817 75.600,272.000 72.521,272.000 72.022 C 272.000 71.797,273.371 70.276,275.047 68.644 C 276.761 66.974,277.975 65.483,277.823 65.237 C 277.670 64.990,277.955 64.643,278.476 64.443 C 279.403 64.086,280.828 62.409,281.314 61.100 C 281.458 60.715,281.938 60.400,282.382 60.400 C 282.890 60.400,283.566 59.805,284.200 58.800 C 284.756 57.920,285.398 57.200,285.629 57.200 C 285.859 57.200,285.933 57.016,285.794 56.790 C 285.655 56.565,285.689 56.406,285.870 56.437 C 286.712 56.584,287.200 56.349,287.200 55.800 C 287.200 55.470,287.410 55.200,287.667 55.200 C 287.923 55.200,288.013 55.080,287.866 54.932 C 287.561 54.627,288.734 53.200,289.291 53.200 C 289.692 53.200,290.837 52.158,290.814 51.814 C 290.759 50.992,290.870 50.800,291.400 50.800 C 291.730 50.800,292.000 50.607,292.000 50.371 C 292.000 49.734,293.053 48.800,293.771 48.800 C 294.117 48.800,294.400 48.529,294.400 48.198 C 294.400 47.672,298.963 42.928,303.025 39.231 C 303.781 38.543,304.400 37.812,304.400 37.606 C 304.400 36.932,306.131 35.600,307.008 35.600 C 307.513 35.600,308.085 35.189,308.400 34.600 C 308.694 34.050,309.053 33.600,309.196 33.600 C 309.563 33.600,313.197 30.080,313.215 29.707 C 313.224 29.538,314.169 28.719,315.315 27.887 C 319.349 24.959,321.373 23.225,321.659 22.452 C 321.818 22.022,322.365 21.543,322.874 21.386 C 323.383 21.230,324.550 20.494,325.467 19.751 C 326.384 19.008,327.329 18.400,327.567 18.400 C 327.805 18.400,328.000 18.264,328.000 18.098 C 328.000 17.931,328.554 17.550,329.232 17.250 C 329.909 16.950,331.245 16.108,332.201 15.379 C 333.156 14.649,334.537 13.749,335.269 13.378 C 336.001 13.007,336.870 12.474,337.200 12.194 C 338.334 11.231,344.372 8.070,345.585 7.803 C 346.253 7.656,346.800 7.366,346.800 7.158 C 346.800 6.950,347.295 6.597,347.900 6.374 C 349.014 5.962,350.419 5.313,356.200 2.540 C 357.960 1.696,359.940 0.793,360.600 0.533 C 362.245 -0.114,344.042 -0.089,339.000 0.563 M391.917 5.100 C 393.359 6.507,394.167 6.933,393.025 5.685 C 392.379 4.978,391.704 4.400,391.525 4.400 C 391.346 4.400,391.523 4.715,391.917 5.100 M263.800 30.823 C 263.140 31.244,262.169 31.776,261.642 32.006 C 261.116 32.236,260.010 32.959,259.185 33.612 C 258.360 34.265,257.531 34.800,257.342 34.800 C 257.154 34.801,256.477 35.251,255.838 35.800 C 254.093 37.301,255.548 37.051,257.642 35.490 C 258.609 34.770,260.570 33.476,262.000 32.615 C 263.430 31.753,264.660 30.901,264.734 30.722 C 264.808 30.542,265.061 30.514,265.296 30.659 C 265.549 30.816,265.607 30.735,265.438 30.462 C 265.281 30.208,265.118 30.013,265.076 30.029 C 265.034 30.045,264.460 30.403,263.800 30.823 M251.803 38.291 C 250.924 38.865,250.417 39.406,250.675 39.492 C 251.259 39.686,253.280 38.668,253.978 37.826 C 254.808 36.827,253.672 37.069,251.803 38.291 M248.253 40.611 C 247.894 40.873,247.600 41.203,247.600 41.344 C 247.600 41.815,248.302 41.607,249.217 40.867 C 250.255 40.026,249.373 39.792,248.253 40.611 M242.400 44.800 C 241.893 45.240,241.665 45.600,241.894 45.600 C 242.464 45.600,244.311 44.030,243.761 44.013 C 243.520 44.006,242.907 44.360,242.400 44.800 M237.204 48.653 C 236.216 49.429,235.316 50.191,235.204 50.346 C 235.092 50.501,234.481 51.026,233.846 51.514 C 232.343 52.668,232.786 52.658,234.484 51.500 C 237.065 49.739,238.734 48.350,238.953 47.779 C 239.238 47.035,239.304 47.003,237.204 48.653 M229.464 54.560 C 227.582 56.338,226.977 57.286,228.339 56.323 C 229.519 55.488,232.000 53.244,232.000 53.012 C 232.000 52.445,231.160 52.958,229.464 54.560 M223.400 59.249 C 223.180 59.440,221.650 60.894,220.000 62.480 C 217.024 65.340,217.099 65.441,220.227 62.783 C 221.122 62.022,222.357 61.010,222.971 60.534 C 223.586 60.058,224.024 59.495,223.945 59.284 C 223.861 59.063,223.630 59.048,223.400 59.249 M214.753 66.684 C 214.011 67.298,212.864 68.295,212.202 68.900 C 211.541 69.506,210.288 70.623,209.417 71.384 C 208.547 72.145,207.962 72.895,208.117 73.051 C 208.273 73.206,208.895 72.855,209.500 72.271 C 210.646 71.163,211.345 70.534,214.581 67.695 C 216.736 65.804,216.887 64.916,214.753 66.684 M206.392 74.210 C 205.619 75.141,206.171 75.317,206.998 74.402 C 207.397 73.961,207.538 73.600,207.311 73.600 C 207.084 73.600,206.670 73.874,206.392 74.210 M196.959 82.977 C 195.898 83.980,194.933 84.801,194.815 84.801 C 194.697 84.802,194.259 85.311,193.843 85.933 C 193.426 86.554,192.481 87.477,191.743 87.983 C 191.004 88.489,190.400 89.040,190.400 89.207 C 190.400 89.375,188.780 91.152,186.800 93.156 C 184.820 95.161,183.200 96.947,183.200 97.125 C 183.200 97.303,182.639 98.022,181.953 98.724 C 181.266 99.426,180.850 100.000,181.026 100.000 C 181.203 100.000,182.237 99.055,183.325 97.900 C 184.413 96.745,188.467 92.612,192.333 88.715 C 196.199 84.818,199.256 81.522,199.125 81.392 C 198.995 81.262,198.020 81.975,196.959 82.977 M177.081 103.517 C 176.267 104.351,175.600 105.221,175.600 105.449 C 175.600 105.678,175.150 106.106,174.600 106.400 C 174.050 106.694,173.600 107.060,173.600 107.213 C 173.600 107.366,173.181 107.920,172.668 108.445 C 172.156 108.970,171.618 109.760,171.473 110.200 C 171.329 110.640,172.558 109.563,174.205 107.807 C 175.852 106.051,177.200 104.398,177.200 104.134 C 177.200 103.870,177.560 103.540,178.000 103.400 C 178.440 103.260,178.800 102.888,178.800 102.573 C 178.800 101.780,178.751 101.807,177.081 103.517 M168.484 113.042 C 168.061 113.500,168.074 113.600,168.561 113.600 C 169.240 113.600,169.764 112.947,169.307 112.670 C 169.138 112.568,168.768 112.735,168.484 113.042 M115.000 117.711 C 113.633 118.720,111.600 120.717,111.600 121.051 C 111.600 121.517,117.160 117.584,117.185 117.100 C 117.213 116.540,116.204 116.822,115.000 117.711 M147.640 117.255 C 151.587 118.577,152.357 120.518,150.451 124.344 C 148.477 128.305,144.620 135.114,143.634 136.377 C 142.108 138.333,137.496 145.448,136.490 147.400 C 136.037 148.280,133.896 151.565,131.733 154.699 C 127.766 160.448,125.856 163.521,121.478 171.200 C 120.162 173.510,117.967 177.020,116.601 179.000 C 115.236 180.980,113.376 183.860,112.468 185.400 C 107.493 193.839,99.967 198.876,95.680 196.636 C 87.375 192.297,89.083 179.789,100.220 163.400 C 101.565 161.420,103.265 158.720,103.996 157.400 C 104.728 156.080,106.603 153.147,108.163 150.882 C 111.798 145.605,116.056 139.282,118.600 135.381 C 124.285 126.665,129.620 119.938,132.215 118.211 C 134.153 116.922,144.694 116.269,147.640 117.255 M106.392 125.810 C 105.619 126.741,106.171 126.917,106.998 126.002 C 107.397 125.561,107.538 125.200,107.311 125.200 C 107.084 125.200,106.670 125.474,106.392 125.810 M118.000 230.724 C 118.000 230.939,118.285 231.224,118.633 231.357 C 119.023 231.507,119.206 231.418,119.108 231.125 C 118.909 230.527,118.000 230.198,118.000 230.724 M59.426 243.900 C 58.562 245.005,58.493 245.190,59.163 244.604 C 59.965 243.904,61.023 242.400,60.714 242.400 C 60.651 242.400,60.072 243.075,59.426 243.900 M110.700 244.466 C 110.095 245.145,109.595 245.813,109.589 245.950 C 109.583 246.088,109.024 246.740,108.346 247.400 C 107.669 248.060,106.956 248.960,106.761 249.400 C 106.567 249.840,106.106 250.617,105.738 251.126 C 105.156 251.931,105.388 251.865,107.501 250.626 C 110.559 248.834,112.008 248.798,114.622 250.452 C 117.394 252.205,129.166 262.561,138.200 271.192 C 141.396 274.245,152.153 283.701,160.101 290.443 C 160.994 291.200,161.253 291.686,161.048 292.220 C 160.775 292.930,160.793 292.930,161.583 292.216 C 162.032 291.809,162.400 291.459,162.399 291.438 C 162.396 291.344,147.915 276.570,138.392 266.947 C 132.628 261.121,127.812 256.455,127.689 256.577 C 127.567 256.700,128.172 257.475,129.033 258.300 C 129.895 259.125,130.960 260.250,131.400 260.800 C 132.573 262.265,128.807 258.834,120.133 250.535 C 111.619 242.389,112.211 242.770,110.700 244.466 M257.600 255.602 C 251.851 260.108,233.348 272.264,221.200 279.518 C 214.456 283.545,213.667 284.093,211.617 286.183 L 209.847 287.986 209.769 292.493 C 209.727 294.972,209.398 299.488,209.040 302.528 C 208.681 305.569,208.474 308.195,208.578 308.365 C 208.914 308.908,206.890 316.936,205.948 318.800 C 205.447 319.790,205.017 320.690,204.991 320.800 C 203.639 326.580,202.572 326.271,202.170 319.982 C 201.843 314.857,201.843 315.477,202.171 312.600 C 202.498 309.726,203.037 307.208,203.821 304.886 C 205.544 299.784,204.367 297.856,200.715 299.800 C 196.861 301.852,195.565 301.059,195.297 296.486 C 195.175 294.405,194.922 293.246,194.520 292.928 C 193.612 292.209,194.384 291.704,205.247 285.916 C 223.628 276.122,241.422 265.720,253.339 257.803 C 257.488 255.046,259.895 253.803,257.600 255.602 M51.611 256.587 C 51.343 256.909,51.193 257.380,51.277 257.632 C 51.361 257.884,51.645 257.620,51.907 257.045 C 52.440 255.874,52.337 255.712,51.611 256.587 M50.064 261.144 C 49.809 261.996,49.613 262.942,49.628 263.246 C 49.643 263.551,49.924 262.926,50.252 261.858 C 50.580 260.790,50.777 259.843,50.689 259.755 C 50.600 259.667,50.319 260.292,50.064 261.144 M47.049 272.215 C 46.912 272.573,46.815 273.166,46.834 273.533 C 46.853 273.900,47.027 273.669,47.221 273.020 C 47.598 271.758,47.465 271.133,47.049 272.215 M45.636 277.236 C 45.366 278.139,45.218 278.952,45.308 279.042 C 45.398 279.132,45.693 278.466,45.964 277.564 C 46.234 276.661,46.382 275.848,46.292 275.758 C 46.202 275.668,45.907 276.334,45.636 277.236 M96.185 278.185 C 96.030 279.423,95.993 280.527,96.103 280.637 C 96.213 280.747,96.430 279.823,96.585 278.585 C 96.739 277.346,96.776 276.243,96.666 276.133 C 96.556 276.023,96.339 276.946,96.185 278.185 M94.885 283.960 C 94.618 284.708,94.418 285.788,94.440 286.360 C 94.470 287.174,94.603 287.008,95.046 285.600 C 95.723 283.452,95.581 282.007,94.885 283.960 M43.201 285.600 C 43.133 285.818,43.013 286.369,42.636 288.200 C 42.448 289.107,42.537 289.015,43.001 287.820 C 43.338 286.951,43.535 286.051,43.438 285.820 C 43.342 285.589,43.235 285.490,43.201 285.600 M283.000 286.706 C 282.780 286.868,282.335 287.360,282.012 287.800 C 281.578 288.391,281.709 288.346,282.512 287.630 C 283.491 286.758,283.789 286.388,283.500 286.406 C 283.445 286.409,283.220 286.544,283.000 286.706 M41.400 292.000 C 41.250 292.473,41.217 292.950,41.327 293.060 C 41.437 293.170,41.650 292.873,41.800 292.400 C 41.950 291.927,41.983 291.450,41.873 291.340 C 41.763 291.230,41.550 291.527,41.400 292.000 M264.400 305.313 C 264.070 305.581,263.537 306.160,263.215 306.600 C 262.894 307.040,263.209 306.871,263.915 306.225 C 265.067 305.172,265.400 304.775,265.100 304.813 C 265.045 304.820,264.730 305.045,264.400 305.313 M28.519 328.653 C 28.658 328.792,28.592 329.242,28.372 329.653 C 28.101 330.159,28.106 330.400,28.386 330.400 C 28.614 330.400,28.800 330.235,28.800 330.033 C 28.800 329.831,28.909 329.381,29.043 329.033 C 29.186 328.660,29.076 328.400,28.776 328.400 C 28.496 328.400,28.380 328.514,28.519 328.653 M25.611 336.571 C 24.981 338.229,25.154 338.779,25.822 337.239 C 26.147 336.491,26.325 335.791,26.217 335.684 C 26.110 335.577,25.837 335.976,25.611 336.571 M22.411 344.971 C 21.817 346.534,21.934 346.780,22.647 345.465 C 22.986 344.840,23.164 344.230,23.042 344.109 C 22.921 343.988,22.637 344.376,22.411 344.971 M18.400 354.403 C 18.400 354.870,18.208 355.611,17.974 356.048 C 17.740 356.486,17.608 357.023,17.681 357.242 C 17.753 357.460,18.115 356.825,18.484 355.829 C 18.880 354.760,19.000 353.924,18.777 353.786 C 18.570 353.658,18.400 353.935,18.400 354.403 " stroke="none" fill="#5b712b" fill-rule="evenodd"></path></g></svg>