<?xml version="1.0" encoding="utf-8"?>
<svg version="1.1" xmlns="http://www.w3.org/2000/svg" xmlns:xlink="http://www.w3.org/1999/xlink" x="0px" y="0px" width="145.9" height="55.4"
	 viewBox="0 0 145.9 55.4" enable-background="new 0 0 145.9 55.4" xml:space="preserve">
<path fill="#231F20" d="M31.8,0.6c0.7,0.7,0.9,1.7,1.3,2.6c-1.2,1.6-3.1,2.3-4.8,3.3C27.8,6.7,27.5,7,27,7.3c-0.7-0.3-2-0.7-2-1.8
	c-0.5-0.8-1-1.6-1-2.5c1.3-1.6,3.6-1.2,5-2.7c0.7,0,1.3-0.6,2-0.1C31.2,0.4,31.4,0.6,31.8,0.6"/>
<path fill="#231F20" d="M26.6,10.1c1.3-0.2,3-0.8,4,0.4c0.4,0.2,0.3,0.7,0.4,1c-0.1,0.2-0.2,0.8-0.7,0.9c-0.5-0.1-1.1,0.4-1.7,0.7
	c0.3,0.1,0.9,0.5,1,0.9c0.4,0.6,0,1.3,0,1.9c-0.4,1.2-2.2,1-2,2.6c-1.9,0.7-3.1,2.6-5.2,2.8c-1.2,1-2.7,1.9-3.7,3.2
	c-0.4-3.7,2.2-7.2,5.3-8.8c-0.2-0.8-1.5-1.2-1.5-2.2c-0.5-0.6-0.9-1.5-0.9-2.2c1.3-1,2.5-2.3,4.3-1.8C26,9.7,26.4,9.7,26.6,10.1"/>
<path fill="#88714C" d="M38.4,20.4c0-0.1-0.2-0.3-0.3-0.4c-0.4,0.1-0.7-0.2-1,0.1c-0.2-0.7-1.3-0.2-1.6-0.8
	C36.7,18.9,37.8,19.6,38.4,20.4"/>
<polygon fill="#88714C" points="36.8,20.6 37,20.3 36.7,20.1 "/>
<path fill="#88714C" d="M38.8,20.7c-0.1,0.5-0.4,0.7-0.8,0.9l0.4-0.7c0,0.1,0.1,0.1,0.1,0.1C38.7,21,38.8,20.7,38.8,20.7"/>
<path fill="#88714C" d="M37.4,20.8c-0.1,0.1-0.3,0.3-0.2,0.5c0.2-0.1,0.6,0.2,0.6,0.5c0,0.1-0.1,0.1-0.1,0.2c0-0.2-0.2-0.4-0.4-0.3
	l-0.1,0.1c0,0.4,0.1-0.2-0.1-0.2c-1,0.1-0.3,1.1-1.3,1.2c0-0.3,0.2-0.4,0.4-0.5c-0.3-0.7-0.7,0.1-1,0l0.4-0.4l-0.1-0.1
	c0.1,0,0.7,0.1,0.8-0.4c0.2,0.5,0.6-0.1,0.8-0.2C37.1,21,37.1,20.7,37.4,20.8"/>
<path fill="#88714C" d="M34.5,22.6c-0.1-0.1-0.1-0.3,0.1-0.4C34.5,22.3,34.4,22.5,34.5,22.6"/>
<path fill="#88714C" d="M27.2,25.1c-0.5,0-1,0-1.3,0.4l-0.2-0.1c0.1-0.4,1-0.2,1.4-0.5V25.1z"/>
<path fill="#88714C" d="M24.4,27.6c-0.1,0.2-0.3,0.2-0.4,0.2C24,27.7,24.3,27.6,24.4,27.6"/>
<path fill="#88714C" d="M19.4,28.4c-0.2,0-0.5,0.1-0.7-0.1c0.2-0.2,0.5,0,0.7-0.2V28.4z"/>
<path fill="#88714C" d="M14.6,29.1h0.3c0.2-0.1,0.2-0.2,0.3-0.4C14.9,28.7,14.7,28.9,14.6,29.1 M15.4,28.4h-0.3l0.3,0.2V28.4z
	 M17.7,18.5c-0.6,2.1-2.5,1.5-4,2.4c0.1,0.1-0.5,0.2-1,0.3l-0.4,0.2c-1.6,0.2-2.7,1.3-4.2,2c0.1,0.7-0.8,0.3-1.2,0.7
	c-0.1,0.5-1.1,0.3-0.9,1c-0.7,0.5-1.6,1-1.9,1.7c0.8,0.7,1.9,0.6,2.8,0.8c3,0.3,5.6-0.1,8.4-0.1c0.8-0.1,1.6-0.4,2.5-0.4v0.1
	c0.6,0.2,1-0.5,1.7-0.2c0.4-0.5,1.3-0.1,1.8-0.7c0.9-0.3,2.2-0.1,2.8-0.5v0.1c-0.3-0.1-0.2,0.2-0.4,0.4c0.2,0.1,0.4,0.1,0.7,0.1
	c1-1,1.8,0.3,2.7-0.9c0.4-0.5,1-0.7,1.6-0.9l0.2,0.3c0.3-0.9,1.3-0.6,1.8-1c-0.4,0.1-0.4,0.7-1,0.4c0.4,0.7-0.6,0.7-0.8,1.1
	c-0.2,0.1-0.7,0-0.7-0.4c-0.2,0.2-0.2,1-0.7,0.7c-0.6,0.1-1.4,0.4-2.1,0.7c-0.7,0.1-1.7,0.5-2.5,0.3c-0.7,0.4-1.3,0.3-2.1,0.6
	c-1,0.2-2.4,0.1-3.2,0.7c-0.3,0-0.2,0.5-0.4,0.5c0.3,0,0.2,0.8,0.7,0.4c-0.2,0-0.4,0.3-0.5,0c-0.4,0.1-0.8,0.6-1.2,0.2
	c-0.6,0.3-1.4,0.1-2.1,0.2v-0.2c0.4,0.4,0.3-0.4,0.7-0.5v-0.3c-1.1,0.5-2.4,0.3-3.7,0.8c0.4,0.7-0.7,0.2-0.9,0.4
	c0-0.1,0.2-0.1,0.2-0.2c-1.6-0.5-2.3,0.5-4,0.1L6,29.9c-0.7-0.4-1.7,0.4-2.5-0.1c-0.8-0.1-1.9-0.4-2.2-1.2c-0.3,0.1-0.4-0.1-0.4-0.4
	c0.1-0.8-1.3-1.1-0.7-2c-0.4-0.5,0.1-1.1,0.2-1.6c0.1-0.1,0.1-0.2,0.1-0.4l0.2,0.2c0.4-0.3,0.4-0.7,0.6-1.1l1.1-1.2
	c-0.1,0.1,0,0.2,0.1,0.2c0.1,0,0.2-0.2,0.4-0.2c-0.1-0.4,0.1-0.5,0.4-0.7c0.2-0.1,0.5,0.1,0.6-0.2c-0.2-0.6,0.7,0,0.7-0.7
	c0.8,0.1,1-0.9,1.8-0.7c1.1-1.1,2.7-1.2,4-2.1C12.6,17,16.3,15.3,17.7,18.5"/>
<path fill="#88714C" d="M9.9,29.6c-0.1,0.2-0.2,0.1-0.3,0.1v-0.2C9.7,29.5,9.8,29.4,9.9,29.6"/>
<path fill="#88714C" d="M33.8,22.6c-0.2,0.2-0.4,0.4-0.6,0.2h-0.1C33.3,22.7,33.5,22.5,33.8,22.6"/>
<path fill="#231F20" d="M19.7,34.7c0.3,1.8-0.6,3.4-1.6,4.8l-0.4,0.1l0.1-0.1l-0.1-0.1c-0.8,1-1.8,1.9-2,3.2
	c-0.2,0.1-0.3,0.1-0.4,0.2c-0.2-0.7-0.7-1.7-0.3-2.5c-0.1-2.2,0.9-3.9,1.9-5.8c0.7-0.4,1.3-1.6,2.1-1L19.7,34.7z"/>
<path fill="#231F20" d="M15.4,49.3c0.3,0.6,0.2,1.2,0.1,1.8c-0.4,0.1-0.9,0-1.3-0.2l-0.1,0.1c-0.5-0.3-1-0.7-1-1.3
	c-0.2-0.8,0.9-0.7,1-1.3C14.5,48.5,15,48.9,15.4,49.3"/>
<path fill="#231F20" d="M43.6,40.6v3.5c-0.9,0.5-4.4,0.7-5.3,0.7c-4.9,0-6.4-2.5-6.4-7.1c0-4.8,2-7.1,6.9-7.1c1.8,0,3.1,0.3,4.9,0.8
	v3.1h-1.1v-0.5c-0.3-2.2-1.3-2.7-3.7-2.7c-3.7,0-4.8,2.7-4.8,6c0,3.6,0.6,6.8,4.9,6.8c3.1,0,3.4-0.8,3.7-3.6H43.6z"/>
<path fill="#231F20" d="M50.9,37.9c0,3.4,0.8,6.4,4.8,6.4c4,0,4.8-3.1,4.8-6.4c0-3.4-0.7-6.4-4.8-6.4C51.7,31.6,50.9,34.6,50.9,37.9
	 M48.9,37.9c0-5,1.6-7.1,6.8-7.1c5.2,0,6.8,2.1,6.8,7.1c0,5-1.3,7.1-6.8,7.1C50.5,45,48.9,42.9,48.9,37.9"/>
<path fill="#231F20" d="M79.8,33.1L79.8,33.1L75,44.7c-0.1,0.2-0.3,0.2-0.4,0.1l-4.9-11.4v9.3c0,1.3,0.3,1.3,1.6,1.3v0.7h-2.1h-2.1
	v-0.7c1.3,0,1.6-0.1,1.6-1.3V33c0-1.3-0.4-1.3-1.6-1.3V31h1.6h1.6L75.2,42L79.9,31h1.6h1.6v0.7c-1.3,0-1.6,0-1.6,1.3v9.7
	c0,1.3,0.3,1.3,1.6,1.3v0.7h-2.5h-2.5v-0.7c1.4,0,1.7-0.1,1.7-1.3V33.1z"/>
<path fill="#231F20" d="M92.5,37.9h1c2.5,0,4.2-0.1,4.2-3.1c0-2.9-1-3.1-3.2-3.1h-1.9V37.9z M92.5,42.7c0,1-0.1,1.3,1.9,1.3v0.7
	c-0.9,0-1.9,0-2.8-0.1c-1,0.1-1.9,0.1-2.8,0.1v-0.7c1.9,0,1.9-0.3,1.9-1.3V33c0-1.1,0-1.4-1.9-1.4v-0.7c1,0.1,1.9,0.1,2.8,0.1
	c1.3,0,2.7,0,4.1-0.1c2.5,0,3.9,0.7,3.9,3.5c0,3.7-2.1,4.2-5.3,4.2h-1.8V42.7z"/>
<path fill="#231F20" d="M111.6,37.9l-2-5.1l-2.2,5.3h4.3L111.6,37.9z M110.8,31l4.2,10.9c0.2,0.6,0.7,2.3,2.3,2.2v0.7h-2.7h-2.8
	v-0.7c0,0,1.7,0,1.7-0.8c0-0.4-0.1-0.7-0.3-1l-1.3-3.4h-4.8l-1.3,3.4c-0.1,0.3-0.1,0.6-0.1,0.9c0,0.9,1,0.9,1.6,0.9v0.7h-2.3h-2.4
	v-0.7c0.7-0.1,1,0,1.5-0.6c0.3-0.3,0.8-1.7,1-2.1l4.3-10.4H110.8z"/>
<path fill="#231F20" d="M127.2,37c1.9,0.7,3.6,1.6,3.6,3.8c0,3.3-2.7,4.1-5.5,4.1c-1.4,0-2.9-0.2-4.3-0.8v-3.6h1.3
	c0.2,1.9-0.3,3.7,3.2,3.7c1.8,0,3.4-0.8,3.4-2.8c0-2.2-2.2-2.7-3.9-3.3c-1.9-0.7-3.5-1.3-3.5-3.7c0-2.6,2.2-3.8,4.6-3.8
	c1.3,0,2.6,0.2,4,0.7v3.3H129c-0.1-1.6,0.2-3.3-2.8-3.3c-1.6,0-2.9,0.7-2.9,2.5c0,1.2,0.6,1.8,1.6,2.2L127.2,37z"/>
<path fill="#231F20" d="M142.3,36.8c1.9,0.7,3.6,1.5,3.6,3.8c0,3.3-2.7,4.1-5.5,4.1c-1.4,0-2.9-0.2-4.3-0.8v-3.6h1.3
	c0.2,1.9-0.3,3.7,3.2,3.7c1.8,0,3.4-0.8,3.4-2.8c0-2.2-2.2-2.7-3.9-3.3c-1.9-0.7-3.5-1.3-3.5-3.7c0-2.7,2.2-3.8,4.6-3.8
	c1.3,0,2.6,0.2,4,0.7v3.3h-1.1c-0.1-1.6,0.2-3.3-2.8-3.3c-1.6,0-2.9,0.7-2.9,2.5c0,1.1,0.6,1.8,1.6,2.2L142.3,36.8z"/>
<path fill="#231F20" d="M67.3,54c0-0.4,0-0.5-0.9-0.5v-0.3c0.5,0.1,0.9,0.1,1.3,0.1c0.4,0,0.7,0,1-0.1v0.3C68,53.5,68,53.6,68,54
	v0.7v0.3c-0.7,0.2-1.4,0.4-2.1,0.4c-1.9,0-2.6-1-2.6-2.8c0-1.9,0.8-2.8,2.8-2.8c0.7,0,1.3,0.1,1.9,0.3v1.3h-0.4
	c-0.1-1.1-0.4-1.3-1.5-1.3c-1.6,0-1.9,1.3-1.9,2.6c0,1.5,0.4,2.5,2,2.5c0.3,0,0.7-0.1,1.1-0.3V54z"/>
<path fill="#231F20" d="M76.7,52.4h0.4c0.8,0,1.6,0,1.6-1.1c0-0.8-0.4-1-1.2-1h-0.8V52.4z M76.7,54.5c0,0.4-0.1,0.6,0.7,0.6v0.2
	h-1.1h-1.1v-0.2c0.7,0,0.7-0.2,0.7-0.6v-3.8c0-0.4,0-0.5-0.7-0.5v-0.3h1.1h1.5c1,0,1.6,0.1,1.6,1.2c0,1-0.5,1.3-1.3,1.4
	c0.2,0.4,1.1,1.8,1.3,2.1c0.2,0.2,0.4,0.5,0.8,0.5v0.2h-0.6h-0.6c-0.5-0.8-1.6-2.6-1.9-2.7c-0.2-0.1-0.4-0.1-0.5-0.1V54.5z"/>
<path fill="#231F20" d="M87.8,52.6c0,1.3,0.3,2.5,1.9,2.5c1.6,0,1.9-1.2,1.9-2.5c0-1.3-0.3-2.5-1.9-2.5C88,50,87.8,51.3,87.8,52.6
	 M86.9,52.6c0-1.9,0.7-2.8,2.7-2.8c2.1,0,2.7,0.8,2.7,2.8c0,2-0.5,2.8-2.7,2.8C87.6,55.4,86.9,54.6,86.9,52.6"/>
<path fill="#231F20" d="M100.7,53.6c0,1,0.4,1.6,1.5,1.6c1.2,0,1.7-0.4,1.7-1.6v-2.8c0-0.5,0-0.5-0.8-0.5v-0.3h1h1v0.3
	c-0.7,0-0.7,0.1-0.7,0.5v2.7c0,1.6-0.8,2-2.3,2c-1.3,0-2-0.5-2-1.8v-2.9c0-0.5,0.1-0.5-0.7-0.5v-0.3h1h1.1v0.3
	c-0.7,0-0.7,0.1-0.7,0.5V53.6z"/>
<path fill="#231F20" d="M113.1,52.7h0.4c1,0,1.6-0.1,1.6-1.3c0-1.1-0.4-1.2-1.3-1.2h-0.7V52.7z M113.1,54.5c0,0.4,0,0.6,0.7,0.6v0.2
	h-1.1h-1.1v-0.2c0.7,0,0.7-0.2,0.7-0.6v-3.8c0-0.4,0-0.5-0.7-0.5v-0.3h1.1h1.6c1,0,1.6,0.3,1.6,1.3c0,1.5-0.9,1.7-2.2,1.7h-0.7V54.5
	z"/>
<path fill="#88714C" d="M31.3,24.7c-0.2,0-0.4,0.1-0.7-0.1c0.2-0.2,0.5,0,0.7-0.2V24.7z"/>
<path fill="#88714C" d="M32.6,23.4c-0.4,0-0.9,0-1.3,0.4l-0.1-0.1c0.1-0.4,1-0.2,1.3-0.5V23.4z"/>
<path fill="#88714C" d="M34.4,23.4c-0.2-0.1-0.4,0.1-0.6-0.1c0.1-0.1,0.4,0.1,0.6-0.1V23.4z"/>
<polygon fill="#88714C" points="33.2,23.8 33.3,23.4 33.1,23.3 "/>
</svg>
