<?xml version="1.0" encoding="utf-8"?>
<svg fill="#000000" width="100px" height="100px" viewBox="0 0 24 34" xmlns="http://www.w3.org/2000/svg" class="icon flat-line">
  <g transform="translate(24,0) scale(-1,1)">
    <!-- Rocket Body -->
    <path id="secondary" d="M15.87,18C16.74,8,14,4.36,12.65,3.24a1,1,0,0,0-1.3,0C10,4.36,7.26,8,8.13,18Z" style="fill: #A8D9A0;" />
    
    <!-- Solid Flips -->
    <path id="primary" d="M15.87,11A5.89,5.89,0,0,1,20,17H16Z" style="fill: #00C853;" />
    <path id="primary-2" data-name="primary" d="M8.13,11A5.89,5.89,0,0,0,4,17H8Z" style="fill: #00C853;" />
    
    <!-- Outline and Inner Detail -->
    <path id="primary-3" data-name="primary" d="M15,20V18H9v2a1,1,0,0,0,1,1h4A1,1,0,0,0,15,20Zm.87-2C16.74,8,14,4.36,12.65,3.24a1,1,0,0,0-1.3,0C10,4.36,7.26,8,8.13,18Z"
      style="fill: none; stroke: #66FF99; stroke-linecap: round; stroke-linejoin: round; stroke-width: 2;" />
    
    <!-- Flame -->
    <path d="M12,21 C9.5,24 9.5,30 12,33 C14.5,30 14.5,24 12,21 Z" style="fill: #FFCC00;" />
  </g>
</svg>
